<svg width="756" height="460" viewBox="0 0 756 460" fill="none" xmlns="http://www.w3.org/2000/svg">
<rect x="37" y="1" width="718" height="398" stroke="white" stroke-width="2"/>
<line x1="36" y1="44.5" x2="756" y2="44.5" stroke="white"/>
<line x1="36" y1="398.5" x2="756" y2="398.5" stroke="white"/>
<line x1="36" y1="132.5" x2="756" y2="132.5" stroke="white"/>
<line x1="36" y1="220.5" x2="756" y2="220.5" stroke="white"/>
<path d="M3.70645 49.21C2.65179 49.21 1.82112 48.9627 1.21445 48.468C0.607785 47.964 0.304452 47.2733 0.304452 46.396C0.304452 45.7893 0.463119 45.2713 0.780452 44.842C1.09779 44.4127 1.53179 44.128 2.08245 43.988V43.946C1.62512 43.8153 1.25645 43.5587 0.976452 43.176C0.705785 42.7933 0.570452 42.3547 0.570452 41.86C0.570452 41.0947 0.855119 40.4833 1.42445 40.026C1.99379 39.5687 2.75445 39.34 3.70645 39.34C4.66779 39.34 5.42845 39.5687 5.98845 40.026C6.55779 40.474 6.84245 41.0853 6.84245 41.86C6.84245 42.364 6.70712 42.8073 6.43645 43.19C6.16579 43.5633 5.80179 43.8153 5.34445 43.946V43.988C5.89512 44.128 6.32912 44.4127 6.64645 44.842C6.96379 45.2713 7.12245 45.7893 7.12245 46.396C7.12245 47.2733 6.81445 47.964 6.19845 48.468C5.59179 48.9627 4.76112 49.21 3.70645 49.21ZM3.70645 43.246C4.10779 43.246 4.42512 43.1387 4.65845 42.924C4.90112 42.7 5.02245 42.406 5.02245 42.042C5.02245 41.6687 4.90112 41.3747 4.65845 41.16C4.42512 40.9453 4.10779 40.838 3.70645 40.838C3.30512 40.838 2.98312 40.9453 2.74045 41.16C2.50712 41.3747 2.39045 41.6687 2.39045 42.042C2.39045 42.406 2.51179 42.7 2.75445 42.924C2.99712 43.1387 3.31445 43.246 3.70645 43.246ZM3.70645 47.67C4.20112 47.67 4.58845 47.5347 4.86845 47.264C5.14845 46.9933 5.28845 46.6247 5.28845 46.158C5.28845 45.7007 5.14379 45.3367 4.85445 45.066C4.56512 44.786 4.18245 44.646 3.70645 44.646C3.23979 44.646 2.86179 44.786 2.57245 45.066C2.28312 45.3367 2.13845 45.7007 2.13845 46.158C2.13845 46.6247 2.27845 46.9933 2.55845 47.264C2.83845 47.5347 3.22112 47.67 3.70645 47.67Z" fill="#7D7D7D"/>
<path d="M11.5737 39.34C12.731 39.34 13.6177 39.7693 14.2337 40.628C14.859 41.4773 15.1717 42.6907 15.1717 44.268C15.1717 45.8453 14.859 47.0633 14.2337 47.922C13.6084 48.7807 12.7217 49.21 11.5737 49.21C10.4164 49.21 9.52502 48.7853 8.89969 47.936C8.28369 47.0773 7.97569 45.8547 7.97569 44.268C7.97569 42.6907 8.28369 41.4773 8.89969 40.628C9.52502 39.7693 10.4164 39.34 11.5737 39.34ZM11.5737 40.964C10.995 40.964 10.547 41.2533 10.2297 41.832C9.91235 42.4107 9.75369 43.2227 9.75369 44.268C9.75369 45.3133 9.91235 46.13 10.2297 46.718C10.5564 47.2967 11.0044 47.586 11.5737 47.586C12.143 47.586 12.5864 47.2967 12.9037 46.718C13.221 46.13 13.3797 45.3133 13.3797 44.268C13.3797 43.2227 13.221 42.4107 12.9037 41.832C12.5864 41.2533 12.143 40.964 11.5737 40.964Z" fill="#7D7D7D"/>
<path d="M19.8588 39.34C21.0162 39.34 21.9028 39.7693 22.5188 40.628C23.1442 41.4773 23.4568 42.6907 23.4568 44.268C23.4568 45.8453 23.1442 47.0633 22.5188 47.922C21.8935 48.7807 21.0068 49.21 19.8588 49.21C18.7015 49.21 17.8102 48.7853 17.1848 47.936C16.5688 47.0773 16.2608 45.8547 16.2608 44.268C16.2608 42.6907 16.5688 41.4773 17.1848 40.628C17.8102 39.7693 18.7015 39.34 19.8588 39.34ZM19.8588 40.964C19.2802 40.964 18.8322 41.2533 18.5148 41.832C18.1975 42.4107 18.0388 43.2227 18.0388 44.268C18.0388 45.3133 18.1975 46.13 18.5148 46.718C18.8415 47.2967 19.2895 47.586 19.8588 47.586C20.4282 47.586 20.8715 47.2967 21.1888 46.718C21.5062 46.13 21.6648 45.3133 21.6648 44.268C21.6648 43.2227 21.5062 42.4107 21.1888 41.832C20.8715 41.2533 20.4282 40.964 19.8588 40.964Z" fill="#7D7D7D"/>
<path d="M19.8588 393.34C21.0162 393.34 21.9028 393.769 22.5188 394.628C23.1442 395.477 23.4568 396.691 23.4568 398.268C23.4568 399.845 23.1442 401.063 22.5188 401.922C21.8935 402.781 21.0068 403.21 19.8588 403.21C18.7015 403.21 17.8102 402.785 17.1848 401.936C16.5688 401.077 16.2608 399.855 16.2608 398.268C16.2608 396.691 16.5688 395.477 17.1848 394.628C17.8102 393.769 18.7015 393.34 19.8588 393.34ZM19.8588 394.964C19.2802 394.964 18.8322 395.253 18.5148 395.832C18.1975 396.411 18.0388 397.223 18.0388 398.268C18.0388 399.313 18.1975 400.13 18.5148 400.718C18.8415 401.297 19.2895 401.586 19.8588 401.586C20.4282 401.586 20.8715 401.297 21.1888 400.718C21.5062 400.13 21.6648 399.313 21.6648 398.268C21.6648 397.223 21.5062 396.411 21.1888 395.832C20.8715 395.253 20.4282 394.964 19.8588 394.964Z" fill="#7D7D7D"/>
<path d="M3.73445 137.21C3.01579 137.21 2.38579 137.065 1.84445 136.776C1.31245 136.487 0.901785 136.081 0.612452 135.558C0.323119 135.026 0.178452 134.405 0.178452 133.696C0.178452 132.977 0.318452 132.296 0.598452 131.652C0.878452 130.999 1.33112 130.303 1.95645 129.566L3.70645 127.48H5.80645L2.41845 131.4L2.46045 131.428C2.73112 131.157 3.00179 130.966 3.27245 130.854C3.54312 130.733 3.85112 130.672 4.19645 130.672C4.78445 130.672 5.30712 130.807 5.76445 131.078C6.22179 131.339 6.57645 131.713 6.82845 132.198C7.08045 132.683 7.20645 133.239 7.20645 133.864C7.20645 134.517 7.05712 135.096 6.75845 135.6C6.46912 136.104 6.05845 136.501 5.52645 136.79C5.00379 137.07 4.40645 137.21 3.73445 137.21ZM3.69245 135.614C4.20579 135.614 4.62112 135.455 4.93845 135.138C5.25579 134.821 5.41445 134.401 5.41445 133.878C5.41445 133.355 5.25579 132.935 4.93845 132.618C4.62112 132.301 4.20112 132.142 3.67845 132.142C3.16512 132.142 2.74979 132.301 2.43245 132.618C2.11512 132.935 1.95645 133.355 1.95645 133.878C1.95645 134.401 2.11512 134.821 2.43245 135.138C2.74979 135.455 3.16979 135.614 3.69245 135.614Z" fill="#7D7D7D"/>
<path d="M11.5737 127.34C12.731 127.34 13.6177 127.769 14.2337 128.628C14.859 129.477 15.1717 130.691 15.1717 132.268C15.1717 133.845 14.859 135.063 14.2337 135.922C13.6084 136.781 12.7217 137.21 11.5737 137.21C10.4164 137.21 9.52502 136.785 8.89969 135.936C8.28369 135.077 7.97569 133.855 7.97569 132.268C7.97569 130.691 8.28369 129.477 8.89969 128.628C9.52502 127.769 10.4164 127.34 11.5737 127.34ZM11.5737 128.964C10.995 128.964 10.547 129.253 10.2297 129.832C9.91235 130.411 9.75369 131.223 9.75369 132.268C9.75369 133.313 9.91235 134.13 10.2297 134.718C10.5564 135.297 11.0044 135.586 11.5737 135.586C12.143 135.586 12.5864 135.297 12.9037 134.718C13.221 134.13 13.3797 133.313 13.3797 132.268C13.3797 131.223 13.221 130.411 12.9037 129.832C12.5864 129.253 12.143 128.964 11.5737 128.964Z" fill="#7D7D7D"/>
<path d="M19.8588 127.34C21.0162 127.34 21.9028 127.769 22.5188 128.628C23.1442 129.477 23.4568 130.691 23.4568 132.268C23.4568 133.845 23.1442 135.063 22.5188 135.922C21.8935 136.781 21.0068 137.21 19.8588 137.21C18.7015 137.21 17.8102 136.785 17.1848 135.936C16.5688 135.077 16.2608 133.855 16.2608 132.268C16.2608 130.691 16.5688 129.477 17.1848 128.628C17.8102 127.769 18.7015 127.34 19.8588 127.34ZM19.8588 128.964C19.2802 128.964 18.8322 129.253 18.5148 129.832C18.1975 130.411 18.0388 131.223 18.0388 132.268C18.0388 133.313 18.1975 134.13 18.5148 134.718C18.8415 135.297 19.2895 135.586 19.8588 135.586C20.4282 135.586 20.8715 135.297 21.1888 134.718C21.5062 134.13 21.6648 133.313 21.6648 132.268C21.6648 131.223 21.5062 130.411 21.1888 129.832C20.8715 129.253 20.4282 128.964 19.8588 128.964Z" fill="#7D7D7D"/>
<path d="M7.24878 223.376H6.31078V225H4.67278V223.376H0.0527802V222.004L4.58878 215.55H6.31078V221.808H7.24878V223.376ZM4.67278 221.808V217.86H4.61678L1.84478 221.808H4.67278Z" fill="#7D7D7D"/>
<path d="M11.5737 215.34C12.731 215.34 13.6177 215.769 14.2337 216.628C14.859 217.477 15.1717 218.691 15.1717 220.268C15.1717 221.845 14.859 223.063 14.2337 223.922C13.6084 224.781 12.7217 225.21 11.5737 225.21C10.4164 225.21 9.52502 224.785 8.89969 223.936C8.28369 223.077 7.97569 221.855 7.97569 220.268C7.97569 218.691 8.28369 217.477 8.89969 216.628C9.52502 215.769 10.4164 215.34 11.5737 215.34ZM11.5737 216.964C10.995 216.964 10.547 217.253 10.2297 217.832C9.91235 218.411 9.75369 219.223 9.75369 220.268C9.75369 221.313 9.91235 222.13 10.2297 222.718C10.5564 223.297 11.0044 223.586 11.5737 223.586C12.143 223.586 12.5864 223.297 12.9037 222.718C13.221 222.13 13.3797 221.313 13.3797 220.268C13.3797 219.223 13.221 218.411 12.9037 217.832C12.5864 217.253 12.143 216.964 11.5737 216.964Z" fill="#7D7D7D"/>
<path d="M19.8588 215.34C21.0162 215.34 21.9028 215.769 22.5188 216.628C23.1442 217.477 23.4568 218.691 23.4568 220.268C23.4568 221.845 23.1442 223.063 22.5188 223.922C21.8935 224.781 21.0068 225.21 19.8588 225.21C18.7015 225.21 17.8102 224.785 17.1848 223.936C16.5688 223.077 16.2608 221.855 16.2608 220.268C16.2608 218.691 16.5688 217.477 17.1848 216.628C17.8102 215.769 18.7015 215.34 19.8588 215.34ZM19.8588 216.964C19.2802 216.964 18.8322 217.253 18.5148 217.832C18.1975 218.411 18.0388 219.223 18.0388 220.268C18.0388 221.313 18.1975 222.13 18.5148 222.718C18.8415 223.297 19.2895 223.586 19.8588 223.586C20.4282 223.586 20.8715 223.297 21.1888 222.718C21.5062 222.13 21.6648 221.313 21.6648 220.268C21.6648 219.223 21.5062 218.411 21.1888 217.832C20.8715 217.253 20.4282 216.964 19.8588 216.964Z" fill="#7D7D7D"/>
<path d="M0.960046 311.684L4.18005 308.24C4.62805 307.773 4.94071 307.386 5.11805 307.078C5.30471 306.761 5.39805 306.453 5.39805 306.154C5.39805 305.771 5.28138 305.473 5.04805 305.258C4.81471 305.043 4.49738 304.936 4.09605 304.936C3.65738 304.936 3.31205 305.062 3.06005 305.314C2.80805 305.557 2.67738 305.902 2.66805 306.35H0.932046C0.950712 305.407 1.24471 304.67 1.81405 304.138C2.38338 303.606 3.16271 303.34 4.15205 303.34C5.09471 303.34 5.83205 303.583 6.36405 304.068C6.90538 304.544 7.17605 305.202 7.17605 306.042C7.17605 306.565 7.05471 307.059 6.81205 307.526C6.56938 307.983 6.15871 308.506 5.58005 309.094L3.34005 311.432L7.19005 311.418V313H0.960046V311.684Z" fill="#7D7D7D"/>
<path d="M11.5737 303.34C12.731 303.34 13.6177 303.769 14.2337 304.628C14.859 305.477 15.1717 306.691 15.1717 308.268C15.1717 309.845 14.859 311.063 14.2337 311.922C13.6084 312.781 12.7217 313.21 11.5737 313.21C10.4164 313.21 9.52502 312.785 8.89969 311.936C8.28369 311.077 7.97569 309.855 7.97569 308.268C7.97569 306.691 8.28369 305.477 8.89969 304.628C9.52502 303.769 10.4164 303.34 11.5737 303.34ZM11.5737 304.964C10.995 304.964 10.547 305.253 10.2297 305.832C9.91235 306.411 9.75369 307.223 9.75369 308.268C9.75369 309.313 9.91235 310.13 10.2297 310.718C10.5564 311.297 11.0044 311.586 11.5737 311.586C12.143 311.586 12.5864 311.297 12.9037 310.718C13.221 310.13 13.3797 309.313 13.3797 308.268C13.3797 307.223 13.221 306.411 12.9037 305.832C12.5864 305.253 12.143 304.964 11.5737 304.964Z" fill="#7D7D7D"/>
<path d="M19.8588 303.34C21.0162 303.34 21.9028 303.769 22.5188 304.628C23.1442 305.477 23.4568 306.691 23.4568 308.268C23.4568 309.845 23.1442 311.063 22.5188 311.922C21.8935 312.781 21.0068 313.21 19.8588 313.21C18.7015 313.21 17.8102 312.785 17.1848 311.936C16.5688 311.077 16.2608 309.855 16.2608 308.268C16.2608 306.691 16.5688 305.477 17.1848 304.628C17.8102 303.769 18.7015 303.34 19.8588 303.34ZM19.8588 304.964C19.2802 304.964 18.8322 305.253 18.5148 305.832C18.1975 306.411 18.0388 307.223 18.0388 308.268C18.0388 309.313 18.1975 310.13 18.5148 310.718C18.8415 311.297 19.2895 311.586 19.8588 311.586C20.4282 311.586 20.8715 311.297 21.1888 310.718C21.5062 310.13 21.6648 309.313 21.6648 308.268C21.6648 307.223 21.5062 306.411 21.1888 305.832C20.8715 305.253 20.4282 304.964 19.8588 304.964Z" fill="#7D7D7D"/>
<line x1="36" y1="308.5" x2="756" y2="308.5" stroke="white"/>
<line x1="36" y1="176.5" x2="756" y2="176.5" stroke="white" stroke-opacity="0.5"/>
<line x1="36" y1="88.5" x2="756" y2="88.5" stroke="white" stroke-opacity="0.5"/>
<line x1="36" y1="0.5" x2="756" y2="0.5" stroke="white" stroke-opacity="0.5"/>
<line x1="36" y1="264.5" x2="756" y2="264.5" stroke="white" stroke-opacity="0.5"/>
<line x1="36" y1="352.5" x2="756" y2="352.5" stroke="white" stroke-opacity="0.5"/>
<rect x="55" y="213" width="12" height="185" fill="#434878"/>
<rect x="67" y="317" width="12" height="81" fill="#E24000"/>
<rect x="102" y="206" width="12" height="192" fill="#434878"/>
<rect x="114" y="301" width="12" height="97" fill="#E24000"/>
<rect x="149" y="225" width="12" height="173" fill="#434878"/>
<rect x="161" y="309" width="12" height="89" fill="#E24000"/>
<rect x="196" y="225" width="12" height="173" fill="#434878"/>
<rect x="208" y="291" width="12" height="107" fill="#E24000"/>
<rect x="243" y="213" width="12" height="185" fill="#434878"/>
<rect x="255" y="279" width="12" height="119" fill="#E24000"/>
<rect x="290" y="206" width="12" height="192" fill="#434878"/>
<rect x="302" y="167" width="12" height="231" fill="#E24000"/>
<rect x="337" y="225" width="12" height="173" fill="#434878"/>
<rect x="349" y="141" width="12" height="257" fill="#E24000"/>
<rect x="384" y="229" width="12" height="169" fill="#434878"/>
<rect x="396" y="137" width="12" height="261" fill="#E24000"/>
<rect x="431" y="213" width="12" height="185" fill="#434878"/>
<rect x="443" y="114" width="12" height="284" fill="#E24000"/>
<rect x="478" y="229" width="12" height="169" fill="#434878"/>
<rect x="490" y="73" width="12" height="325" fill="#E24000"/>
<rect x="525" y="235" width="12" height="163" fill="#434878"/>
<rect x="537" y="89" width="12" height="309" fill="#E24000"/>
<rect x="572" y="235" width="12" height="163" fill="#434878"/>
<rect x="584" y="73" width="12" height="325" fill="#E24000"/>
<rect x="619" y="225" width="12" height="173" fill="#434878"/>
<rect x="631" y="53" width="12" height="345" fill="#E24000"/>
<rect x="666" y="229" width="12" height="169" fill="#434878"/>
<rect x="678" y="67" width="12" height="331" fill="#E24000"/>
<rect x="713" y="225" width="12" height="173" fill="#434878"/>
<rect x="725" y="58" width="12" height="340" fill="#E24000"/>
<path d="M486.95 420H485.214V412.23H484.654V410.55H486.95V420Z" fill="#7D7D7D"/>
<path d="M492.073 410.34C493.23 410.34 494.117 410.769 494.733 411.628C495.358 412.477 495.671 413.691 495.671 415.268C495.671 416.845 495.358 418.063 494.733 418.922C494.107 419.781 493.221 420.21 492.073 420.21C490.915 420.21 490.024 419.785 489.399 418.936C488.783 418.077 488.475 416.855 488.475 415.268C488.475 413.691 488.783 412.477 489.399 411.628C490.024 410.769 490.915 410.34 492.073 410.34ZM492.073 411.964C491.494 411.964 491.046 412.253 490.729 412.832C490.411 413.411 490.253 414.223 490.253 415.268C490.253 416.313 490.411 417.13 490.729 417.718C491.055 418.297 491.503 418.586 492.073 418.586C492.642 418.586 493.085 418.297 493.403 417.718C493.72 417.13 493.879 416.313 493.879 415.268C493.879 414.223 493.72 413.411 493.403 412.832C493.085 412.253 492.642 411.964 492.073 411.964Z" fill="#7D7D7D"/>
<path d="M67.8808 420H66.1448V412.23H65.5848V410.55H67.8808V420Z" fill="#7D7D7D"/>
<path d="M110.859 418.684L114.079 415.24C114.527 414.773 114.84 414.386 115.017 414.078C115.204 413.761 115.297 413.453 115.297 413.154C115.297 412.771 115.181 412.473 114.947 412.258C114.714 412.043 114.397 411.936 113.995 411.936C113.557 411.936 113.211 412.062 112.959 412.314C112.707 412.557 112.577 412.902 112.567 413.35H110.831C110.85 412.407 111.144 411.67 111.713 411.138C112.283 410.606 113.062 410.34 114.051 410.34C114.994 410.34 115.731 410.583 116.263 411.068C116.805 411.544 117.075 412.202 117.075 413.042C117.075 413.565 116.954 414.059 116.711 414.526C116.469 414.983 116.058 415.506 115.479 416.094L113.239 418.432L117.089 418.418V420H110.859V418.684Z" fill="#7D7D7D"/>
<path d="M160.879 410.34C161.84 410.34 162.592 410.559 163.133 410.998C163.674 411.427 163.945 412.029 163.945 412.804C163.945 413.355 163.796 413.821 163.497 414.204C163.208 414.577 162.797 414.825 162.265 414.946V414.974C162.909 415.058 163.404 415.305 163.749 415.716C164.094 416.117 164.267 416.659 164.267 417.34C164.267 418.236 163.973 418.941 163.385 419.454C162.806 419.958 161.999 420.21 160.963 420.21C159.908 420.21 159.087 419.958 158.499 419.454C157.911 418.941 157.608 418.222 157.589 417.298H159.367C159.395 417.718 159.549 418.045 159.829 418.278C160.109 418.502 160.492 418.614 160.977 418.614C161.462 418.614 161.831 418.493 162.083 418.25C162.335 418.007 162.461 417.653 162.461 417.186C162.461 416.682 162.302 416.323 161.985 416.108C161.668 415.893 161.14 415.791 160.403 415.8H160.011V414.4H160.403C161.542 414.4 162.111 413.971 162.111 413.112C162.111 412.739 161.999 412.449 161.775 412.244C161.551 412.039 161.234 411.936 160.823 411.936C160.403 411.936 160.072 412.039 159.829 412.244C159.596 412.44 159.474 412.72 159.465 413.084H157.715C157.724 412.225 158.009 411.553 158.569 411.068C159.138 410.583 159.908 410.34 160.879 410.34Z" fill="#7D7D7D"/>
<path d="M211.538 418.376H210.6V420H208.962V418.376H204.342V417.004L208.878 410.55H210.6V416.808H211.538V418.376ZM208.962 416.808V412.86H208.906L206.134 416.808H208.962Z" fill="#7D7D7D"/>
<path d="M255.412 413.77C256.009 413.77 256.532 413.896 256.98 414.148C257.428 414.4 257.773 414.759 258.016 415.226C258.268 415.693 258.394 416.234 258.394 416.85C258.394 417.895 258.081 418.717 257.456 419.314C256.831 419.911 255.972 420.21 254.88 420.21C254.171 420.21 253.531 420.075 252.962 419.804C252.402 419.533 251.945 419.137 251.59 418.614L252.78 417.438C253.312 418.222 254.012 418.614 254.88 418.614C255.412 418.614 255.832 418.455 256.14 418.138C256.448 417.821 256.602 417.387 256.602 416.836C256.602 416.323 256.457 415.917 256.168 415.618C255.888 415.31 255.501 415.156 255.006 415.156C254.698 415.156 254.413 415.221 254.152 415.352C253.9 415.483 253.699 415.665 253.55 415.898H252.122L252.612 410.55H257.554V412.132H253.9L253.676 414.316H253.704C253.909 414.139 254.157 414.003 254.446 413.91C254.745 413.817 255.067 413.77 255.412 413.77Z" fill="#7D7D7D"/>
<path d="M302.085 420.21C301.366 420.21 300.736 420.065 300.195 419.776C299.663 419.487 299.252 419.081 298.963 418.558C298.674 418.026 298.529 417.405 298.529 416.696C298.529 415.977 298.669 415.296 298.949 414.652C299.229 413.999 299.682 413.303 300.307 412.566L302.057 410.48H304.157L300.769 414.4L300.811 414.428C301.082 414.157 301.352 413.966 301.623 413.854C301.894 413.733 302.202 413.672 302.547 413.672C303.135 413.672 303.658 413.807 304.115 414.078C304.572 414.339 304.927 414.713 305.179 415.198C305.431 415.683 305.557 416.239 305.557 416.864C305.557 417.517 305.408 418.096 305.109 418.6C304.82 419.104 304.409 419.501 303.877 419.79C303.354 420.07 302.757 420.21 302.085 420.21ZM302.043 418.614C302.556 418.614 302.972 418.455 303.289 418.138C303.606 417.821 303.765 417.401 303.765 416.878C303.765 416.355 303.606 415.935 303.289 415.618C302.972 415.301 302.552 415.142 302.029 415.142C301.516 415.142 301.1 415.301 300.783 415.618C300.466 415.935 300.307 416.355 300.307 416.878C300.307 417.401 300.466 417.821 300.783 418.138C301.1 418.455 301.52 418.614 302.043 418.614Z" fill="#7D7D7D"/>
<path d="M352.047 412.076L348.309 420H346.475L350.227 412.188H345.971V410.55H352.047V412.076Z" fill="#7D7D7D"/>
<path d="M395.995 420.21C394.941 420.21 394.11 419.963 393.504 419.468C392.897 418.964 392.594 418.273 392.594 417.396C392.594 416.789 392.752 416.271 393.07 415.842C393.387 415.413 393.821 415.128 394.372 414.988V414.946C393.914 414.815 393.546 414.559 393.266 414.176C392.995 413.793 392.86 413.355 392.86 412.86C392.86 412.095 393.144 411.483 393.714 411.026C394.283 410.569 395.043 410.34 395.995 410.34C396.957 410.34 397.718 410.569 398.278 411.026C398.847 411.474 399.132 412.085 399.132 412.86C399.132 413.364 398.996 413.807 398.726 414.19C398.455 414.563 398.091 414.815 397.633 414.946V414.988C398.184 415.128 398.618 415.413 398.936 415.842C399.253 416.271 399.412 416.789 399.412 417.396C399.412 418.273 399.104 418.964 398.488 419.468C397.881 419.963 397.05 420.21 395.995 420.21ZM395.995 414.246C396.397 414.246 396.714 414.139 396.948 413.924C397.19 413.7 397.312 413.406 397.312 413.042C397.312 412.669 397.19 412.375 396.948 412.16C396.714 411.945 396.397 411.838 395.995 411.838C395.594 411.838 395.272 411.945 395.03 412.16C394.796 412.375 394.68 412.669 394.68 413.042C394.68 413.406 394.801 413.7 395.044 413.924C395.286 414.139 395.603 414.246 395.995 414.246ZM395.995 418.67C396.49 418.67 396.878 418.535 397.158 418.264C397.438 417.993 397.577 417.625 397.577 417.158C397.577 416.701 397.433 416.337 397.144 416.066C396.854 415.786 396.471 415.646 395.995 415.646C395.529 415.646 395.151 415.786 394.862 416.066C394.572 416.337 394.428 416.701 394.428 417.158C394.428 417.625 394.568 417.993 394.848 418.264C395.128 418.535 395.51 418.67 395.995 418.67Z" fill="#7D7D7D"/>
<path d="M444.224 416.178L444.196 416.15C443.71 416.579 443.141 416.794 442.488 416.794C441.937 416.794 441.438 416.654 440.99 416.374C440.542 416.094 440.187 415.716 439.926 415.24C439.664 414.755 439.534 414.218 439.534 413.63C439.534 412.995 439.678 412.431 439.968 411.936C440.266 411.432 440.677 411.04 441.2 410.76C441.732 410.48 442.334 410.34 443.006 410.34C443.706 410.34 444.317 410.485 444.84 410.774C445.362 411.063 445.764 411.479 446.044 412.02C446.333 412.552 446.478 413.177 446.478 413.896C446.478 414.605 446.328 415.291 446.03 415.954C445.731 416.617 445.246 417.34 444.574 418.124L442.978 420H440.92L444.224 416.178ZM443.02 415.324C443.514 415.324 443.916 415.17 444.224 414.862C444.541 414.554 444.7 414.148 444.7 413.644C444.7 413.14 444.541 412.734 444.224 412.426C443.916 412.109 443.51 411.95 443.006 411.95C442.502 411.95 442.091 412.104 441.774 412.412C441.466 412.72 441.312 413.131 441.312 413.644C441.312 414.139 441.466 414.545 441.774 414.862C442.091 415.17 442.506 415.324 443.02 415.324Z" fill="#7D7D7D"/>
<path d="M535.598 420H533.862V412.23H533.302V410.55H535.598V420Z" fill="#7D7D7D"/>
<path d="M540.164 420H538.428V412.23H537.868V410.55H540.164V420Z" fill="#7D7D7D"/>
<path d="M581.34 420H579.604V412.23H579.044V410.55H581.34V420Z" fill="#7D7D7D"/>
<path d="M583.081 418.684L586.301 415.24C586.749 414.773 587.062 414.386 587.239 414.078C587.426 413.761 587.519 413.453 587.519 413.154C587.519 412.771 587.402 412.473 587.169 412.258C586.936 412.043 586.618 411.936 586.217 411.936C585.778 411.936 585.433 412.062 585.181 412.314C584.929 412.557 584.798 412.902 584.789 413.35H583.053C583.072 412.407 583.366 411.67 583.935 411.138C584.504 410.606 585.284 410.34 586.273 410.34C587.216 410.34 587.953 410.583 588.485 411.068C589.026 411.544 589.297 412.202 589.297 413.042C589.297 413.565 589.176 414.059 588.933 414.526C588.69 414.983 588.28 415.506 587.701 416.094L585.461 418.432L589.311 418.418V420H583.081V418.684Z" fill="#7D7D7D"/>
<path d="M628.34 420H626.604V412.23H626.044V410.55H628.34V420Z" fill="#7D7D7D"/>
<path d="M632.998 410.34C633.959 410.34 634.711 410.559 635.252 410.998C635.793 411.427 636.064 412.029 636.064 412.804C636.064 413.355 635.915 413.821 635.616 414.204C635.327 414.577 634.916 414.825 634.384 414.946V414.974C635.028 415.058 635.523 415.305 635.868 415.716C636.213 416.117 636.386 416.659 636.386 417.34C636.386 418.236 636.092 418.941 635.504 419.454C634.925 419.958 634.118 420.21 633.082 420.21C632.027 420.21 631.206 419.958 630.618 419.454C630.03 418.941 629.727 418.222 629.708 417.298H631.486C631.514 417.718 631.668 418.045 631.948 418.278C632.228 418.502 632.611 418.614 633.096 418.614C633.581 418.614 633.95 418.493 634.202 418.25C634.454 418.007 634.58 417.653 634.58 417.186C634.58 416.682 634.421 416.323 634.104 416.108C633.787 415.893 633.259 415.791 632.522 415.8H632.13V414.4H632.522C633.661 414.4 634.23 413.971 634.23 413.112C634.23 412.739 634.118 412.449 633.894 412.244C633.67 412.039 633.353 411.936 632.942 411.936C632.522 411.936 632.191 412.039 631.948 412.244C631.715 412.44 631.593 412.72 631.584 413.084H629.834C629.843 412.225 630.128 411.553 630.688 411.068C631.257 410.583 632.027 410.34 632.998 410.34Z" fill="#7D7D7D"/>
<path d="M675.06 420H673.324V412.23H672.764V410.55H675.06V420Z" fill="#7D7D7D"/>
<path d="M683.732 418.376H682.794V420H681.156V418.376H676.536V417.004L681.072 410.55H682.794V416.808H683.732V418.376ZM681.156 416.808V412.86H681.1L678.328 416.808H681.156Z" fill="#7D7D7D"/>
<path d="M722.271 420H720.535V412.23H719.975V410.55H722.271V420Z" fill="#7D7D7D"/>
<path d="M727.558 413.77C728.156 413.77 728.678 413.896 729.126 414.148C729.574 414.4 729.92 414.759 730.162 415.226C730.414 415.693 730.54 416.234 730.54 416.85C730.54 417.895 730.228 418.717 729.602 419.314C728.977 419.911 728.118 420.21 727.026 420.21C726.317 420.21 725.678 420.075 725.108 419.804C724.548 419.533 724.091 419.137 723.736 418.614L724.926 417.438C725.458 418.222 726.158 418.614 727.026 418.614C727.558 418.614 727.978 418.455 728.286 418.138C728.594 417.821 728.748 417.387 728.748 416.836C728.748 416.323 728.604 415.917 728.314 415.618C728.034 415.31 727.647 415.156 727.152 415.156C726.844 415.156 726.56 415.221 726.298 415.352C726.046 415.483 725.846 415.665 725.696 415.898H724.268L724.758 410.55H729.7V412.132H726.046L725.822 414.316H725.85C726.056 414.139 726.303 414.003 726.592 413.91C726.891 413.817 727.213 413.77 727.558 413.77Z" fill="#7D7D7D"/>
<line x1="278" y1="430" x2="278" y2="2" stroke="#7D7D7D" stroke-width="2" stroke-dasharray="2 2"/>
<path d="M260.096 440.895C260.096 440.391 260.17 439.924 260.318 439.494C260.467 439.064 260.693 438.699 260.998 438.398C261.229 438.16 261.51 437.969 261.842 437.824C262.174 437.676 262.557 437.602 262.99 437.602C263.455 437.602 263.887 437.697 264.285 437.889C264.684 438.076 265.012 438.365 265.27 438.756C265.5 439.1 265.646 439.441 265.709 439.781C265.775 440.121 265.809 440.504 265.809 440.93C265.801 440.984 265.797 441.035 265.797 441.082V441.346H261.619C261.619 441.365 261.619 441.387 261.619 441.41C261.619 441.629 261.654 441.836 261.725 442.031C261.803 442.25 261.92 442.43 262.076 442.57C262.189 442.676 262.318 442.768 262.463 442.846C262.611 442.92 262.791 442.957 263.002 442.957C263.217 442.957 263.395 442.936 263.535 442.893C263.676 442.846 263.801 442.768 263.91 442.658C264.055 442.514 264.154 442.338 264.209 442.131H265.65C265.635 442.314 265.572 442.516 265.463 442.734C265.357 442.953 265.244 443.135 265.123 443.279C264.857 443.592 264.541 443.816 264.174 443.953C263.807 444.09 263.424 444.158 263.025 444.158C262.592 444.158 262.217 444.088 261.9 443.947C261.584 443.807 261.303 443.621 261.057 443.391C260.744 443.086 260.506 442.723 260.342 442.301C260.178 441.875 260.096 441.406 260.096 440.895ZM261.607 440.256H264.309C264.301 439.799 264.172 439.436 263.922 439.166C263.816 439.053 263.686 438.965 263.529 438.902C263.377 438.836 263.193 438.803 262.979 438.803C262.748 438.803 262.543 438.848 262.363 438.938C262.188 439.023 262.043 439.139 261.93 439.283C261.816 439.42 261.736 439.564 261.689 439.717C261.643 439.869 261.615 440.049 261.607 440.256Z" fill="#7D7D7D"/>
<path d="M267.209 444V437.76H268.469L268.574 438.562C268.758 438.234 269.02 437.992 269.359 437.836C269.699 437.68 270.051 437.602 270.414 437.602C270.75 437.602 271.047 437.658 271.305 437.771C271.566 437.885 271.787 438.039 271.967 438.234C272.146 438.43 272.283 438.666 272.377 438.943C272.475 439.217 272.523 439.514 272.523 439.834V444H271.023V440.174C271.023 439.807 270.951 439.52 270.807 439.312C270.662 439.102 270.391 438.996 269.992 438.996C269.727 438.996 269.506 439.07 269.33 439.219C269.154 439.367 269.016 439.557 268.914 439.787C268.801 440.033 268.738 440.307 268.727 440.607C268.715 440.908 268.709 441.191 268.709 441.457V444H267.209Z" fill="#7D7D7D"/>
<path d="M273.865 440.895C273.865 439.656 274.236 438.727 274.979 438.105C275.17 437.945 275.393 437.822 275.646 437.736C275.9 437.646 276.188 437.602 276.508 437.602C276.906 437.602 277.242 437.66 277.516 437.777C277.793 437.895 278 438.033 278.137 438.193V435.334H279.637V444H278.342L278.248 443.314C278.064 443.604 277.812 443.814 277.492 443.947C277.172 444.08 276.84 444.146 276.496 444.146C276.184 444.146 275.898 444.098 275.641 444C275.387 443.902 275.162 443.773 274.967 443.613C274.592 443.309 274.314 442.928 274.135 442.471C273.955 442.01 273.865 441.484 273.865 440.895ZM275.389 440.865C275.389 441.139 275.414 441.41 275.465 441.68C275.52 441.945 275.627 442.184 275.787 442.395C275.9 442.531 276.037 442.648 276.197 442.746C276.361 442.84 276.561 442.887 276.795 442.887C277.092 442.887 277.332 442.824 277.516 442.699C277.699 442.574 277.842 442.414 277.943 442.219C278.049 442.023 278.119 441.805 278.154 441.562C278.189 441.32 278.207 441.088 278.207 440.865C278.207 440.643 278.189 440.414 278.154 440.18C278.119 439.941 278.049 439.725 277.943 439.529C277.842 439.334 277.699 439.174 277.516 439.049C277.332 438.924 277.092 438.861 276.795 438.861C276.564 438.861 276.365 438.91 276.197 439.008C276.033 439.105 275.896 439.221 275.787 439.354C275.627 439.561 275.52 439.797 275.465 440.062C275.414 440.328 275.389 440.596 275.389 440.865Z" fill="#7D7D7D"/>
<path d="M283.58 440.883C283.58 440.355 283.645 439.914 283.773 439.559C283.902 439.199 284.082 438.871 284.312 438.574C284.527 438.309 284.824 438.08 285.203 437.889C285.586 437.697 286.018 437.602 286.498 437.602C286.979 437.602 287.408 437.699 287.787 437.895C288.166 438.086 288.463 438.312 288.678 438.574C288.908 438.871 289.088 439.199 289.217 439.559C289.346 439.914 289.41 440.355 289.41 440.883C289.41 441.41 289.346 441.852 289.217 442.207C289.092 442.562 288.912 442.889 288.678 443.186C288.463 443.451 288.166 443.68 287.787 443.871C287.408 444.062 286.979 444.158 286.498 444.158C286.018 444.158 285.586 444.062 285.203 443.871C284.824 443.676 284.527 443.447 284.312 443.186C284.082 442.889 283.902 442.562 283.773 442.207C283.645 441.852 283.58 441.41 283.58 440.883ZM285.104 440.883C285.104 441.18 285.131 441.467 285.186 441.744C285.244 442.018 285.365 442.254 285.549 442.453C285.654 442.566 285.785 442.66 285.941 442.734C286.102 442.809 286.287 442.846 286.498 442.846C286.705 442.846 286.889 442.809 287.049 442.734C287.209 442.656 287.34 442.562 287.441 442.453C287.625 442.254 287.744 442.018 287.799 441.744C287.857 441.467 287.887 441.18 287.887 440.883C287.887 440.586 287.859 440.299 287.805 440.021C287.75 439.744 287.629 439.506 287.441 439.307C287.336 439.193 287.203 439.1 287.043 439.025C286.887 438.951 286.705 438.914 286.498 438.914C286.291 438.914 286.107 438.953 285.947 439.031C285.787 439.105 285.654 439.197 285.549 439.307C285.365 439.506 285.244 439.744 285.186 440.021C285.131 440.299 285.104 440.586 285.104 440.883Z" fill="#7D7D7D"/>
<path d="M290.055 438.996V437.76H291.109V437.162C291.109 436.588 291.295 436.117 291.666 435.75C292.037 435.379 292.559 435.193 293.23 435.193C293.445 435.193 293.637 435.203 293.805 435.223C293.977 435.242 294.178 435.275 294.408 435.322V436.523C294.248 436.492 294.094 436.469 293.945 436.453C293.797 436.438 293.623 436.43 293.424 436.43C293.15 436.43 292.945 436.5 292.809 436.641C292.676 436.777 292.609 436.959 292.609 437.186V437.76H294.279V438.996H292.609V444H291.109V438.996H290.055Z" fill="#7D7D7D"/>
<path d="M244.861 459V452.76H246.109L246.227 453.586C246.402 453.297 246.639 453.061 246.936 452.877C247.232 452.693 247.588 452.602 248.002 452.602C248.443 452.602 248.812 452.693 249.109 452.877C249.406 453.057 249.633 453.305 249.789 453.621C249.973 453.293 250.227 453.041 250.551 452.865C250.875 452.689 251.25 452.602 251.676 452.602C252.348 452.602 252.854 452.805 253.193 453.211C253.533 453.613 253.703 454.139 253.703 454.787V459H252.215V455.121C252.215 454.738 252.148 454.441 252.016 454.23C251.887 454.02 251.633 453.914 251.254 453.914C251.039 453.914 250.855 453.965 250.703 454.066C250.551 454.164 250.424 454.295 250.322 454.459C250.225 454.623 250.15 454.805 250.1 455.004C250.053 455.203 250.029 455.398 250.029 455.59V459H248.541V455.121C248.541 454.738 248.475 454.441 248.342 454.23C248.213 454.02 247.961 453.914 247.586 453.914C247.371 453.914 247.188 453.965 247.035 454.066C246.883 454.164 246.754 454.295 246.648 454.459C246.543 454.623 246.467 454.805 246.42 455.004C246.373 455.203 246.35 455.398 246.35 455.59V459H244.861Z" fill="#7D7D7D"/>
<path d="M255.045 455.883C255.045 455.355 255.109 454.914 255.238 454.559C255.367 454.199 255.547 453.871 255.777 453.574C255.992 453.309 256.289 453.08 256.668 452.889C257.051 452.697 257.482 452.602 257.963 452.602C258.443 452.602 258.873 452.699 259.252 452.895C259.631 453.086 259.928 453.312 260.143 453.574C260.373 453.871 260.553 454.199 260.682 454.559C260.811 454.914 260.875 455.355 260.875 455.883C260.875 456.41 260.811 456.852 260.682 457.207C260.557 457.562 260.377 457.889 260.143 458.186C259.928 458.451 259.631 458.68 259.252 458.871C258.873 459.062 258.443 459.158 257.963 459.158C257.482 459.158 257.051 459.062 256.668 458.871C256.289 458.676 255.992 458.447 255.777 458.186C255.547 457.889 255.367 457.562 255.238 457.207C255.109 456.852 255.045 456.41 255.045 455.883ZM256.568 455.883C256.568 456.18 256.596 456.467 256.65 456.744C256.709 457.018 256.83 457.254 257.014 457.453C257.119 457.566 257.25 457.66 257.406 457.734C257.566 457.809 257.752 457.846 257.963 457.846C258.17 457.846 258.354 457.809 258.514 457.734C258.674 457.656 258.805 457.562 258.906 457.453C259.09 457.254 259.209 457.018 259.264 456.744C259.322 456.467 259.352 456.18 259.352 455.883C259.352 455.586 259.324 455.299 259.27 455.021C259.215 454.744 259.094 454.506 258.906 454.307C258.801 454.193 258.668 454.1 258.508 454.025C258.352 453.951 258.17 453.914 257.963 453.914C257.756 453.914 257.572 453.953 257.412 454.031C257.252 454.105 257.119 454.197 257.014 454.307C256.83 454.506 256.709 454.744 256.65 455.021C256.596 455.299 256.568 455.586 256.568 455.883Z" fill="#7D7D7D"/>
<path d="M262.322 459V452.76H263.594L263.723 453.697C263.867 453.338 264.105 453.078 264.438 452.918C264.77 452.758 265.119 452.678 265.486 452.678C265.639 452.678 265.795 452.689 265.955 452.713V454.154C265.771 454.115 265.6 454.094 265.439 454.09C264.912 454.09 264.512 454.258 264.238 454.594C263.969 454.93 263.834 455.35 263.834 455.854V459H262.322Z" fill="#7D7D7D"/>
<path d="M266.424 457.201C266.424 456.904 266.477 456.641 266.582 456.41C266.691 456.176 266.842 455.975 267.033 455.807C267.225 455.639 267.447 455.51 267.701 455.42C267.959 455.326 268.236 455.268 268.533 455.244L270.367 455.109V454.729C270.367 454.432 270.297 454.193 270.156 454.014C270.02 453.834 269.738 453.744 269.312 453.744C268.961 453.744 268.688 453.82 268.492 453.973C268.297 454.125 268.191 454.346 268.176 454.635H266.723C266.746 454.283 266.828 453.979 266.969 453.721C267.109 453.463 267.295 453.252 267.525 453.088C267.756 452.924 268.023 452.803 268.328 452.725C268.633 452.643 268.961 452.602 269.312 452.602C269.848 452.602 270.326 452.697 270.748 452.889C271.17 453.076 271.473 453.406 271.656 453.879C271.734 454.078 271.783 454.285 271.803 454.5C271.822 454.715 271.832 454.928 271.832 455.139V457.453C271.832 457.598 271.857 457.699 271.908 457.758C271.963 457.816 272.055 457.846 272.184 457.846C272.246 457.846 272.289 457.842 272.312 457.834C272.336 457.834 272.355 457.83 272.371 457.822V458.93C272.242 458.984 272.133 459.025 272.043 459.053C271.953 459.08 271.816 459.094 271.633 459.094C271.305 459.094 271.051 459.006 270.871 458.83C270.695 458.654 270.596 458.451 270.572 458.221C270.428 458.479 270.188 458.699 269.852 458.883C269.516 459.066 269.125 459.158 268.68 459.158C268.305 459.158 267.977 459.104 267.695 458.994C267.414 458.885 267.18 458.74 266.992 458.561C266.805 458.381 266.662 458.174 266.564 457.939C266.471 457.701 266.424 457.455 266.424 457.201ZM267.889 457.166C267.889 457.404 267.979 457.594 268.158 457.734C268.338 457.875 268.543 457.945 268.773 457.945C269.246 457.945 269.629 457.824 269.922 457.582C270.219 457.336 270.367 456.98 270.367 456.516V456.229L268.785 456.346C268.555 456.361 268.348 456.438 268.164 456.574C267.98 456.711 267.889 456.908 267.889 457.166Z" fill="#7D7D7D"/>
<path d="M272.84 453.996V452.76H273.977V451.178L275.477 450.803V452.76H277.047V453.996H275.477V457.031C275.477 457.27 275.533 457.443 275.646 457.553C275.76 457.662 275.936 457.717 276.174 457.717C276.334 457.717 276.484 457.713 276.625 457.705C276.766 457.697 276.939 457.682 277.146 457.658V458.918C276.729 459.027 276.314 459.082 275.904 459.082C275.889 459.082 275.875 459.082 275.863 459.082C275.23 459.082 274.758 458.912 274.445 458.572C274.133 458.232 273.977 457.764 273.977 457.166V453.996H272.84Z" fill="#7D7D7D"/>
<path d="M277.873 455.883C277.873 455.355 277.938 454.914 278.066 454.559C278.195 454.199 278.375 453.871 278.605 453.574C278.82 453.309 279.117 453.08 279.496 452.889C279.879 452.697 280.311 452.602 280.791 452.602C281.271 452.602 281.701 452.699 282.08 452.895C282.459 453.086 282.756 453.312 282.971 453.574C283.201 453.871 283.381 454.199 283.51 454.559C283.639 454.914 283.703 455.355 283.703 455.883C283.703 456.41 283.639 456.852 283.51 457.207C283.385 457.562 283.205 457.889 282.971 458.186C282.756 458.451 282.459 458.68 282.08 458.871C281.701 459.062 281.271 459.158 280.791 459.158C280.311 459.158 279.879 459.062 279.496 458.871C279.117 458.676 278.82 458.447 278.605 458.186C278.375 457.889 278.195 457.562 278.066 457.207C277.938 456.852 277.873 456.41 277.873 455.883ZM279.396 455.883C279.396 456.18 279.424 456.467 279.479 456.744C279.537 457.018 279.658 457.254 279.842 457.453C279.947 457.566 280.078 457.66 280.234 457.734C280.395 457.809 280.58 457.846 280.791 457.846C280.998 457.846 281.182 457.809 281.342 457.734C281.502 457.656 281.633 457.562 281.734 457.453C281.918 457.254 282.037 457.018 282.092 456.744C282.15 456.467 282.18 456.18 282.18 455.883C282.18 455.586 282.152 455.299 282.098 455.021C282.043 454.744 281.922 454.506 281.734 454.307C281.629 454.193 281.496 454.1 281.336 454.025C281.18 453.951 280.998 453.914 280.791 453.914C280.584 453.914 280.4 453.953 280.24 454.031C280.08 454.105 279.947 454.197 279.842 454.307C279.658 454.506 279.537 454.744 279.479 455.021C279.424 455.299 279.396 455.586 279.396 455.883Z" fill="#7D7D7D"/>
<path d="M285.15 459V452.76H286.422L286.551 453.697C286.695 453.338 286.934 453.078 287.266 452.918C287.598 452.758 287.947 452.678 288.314 452.678C288.467 452.678 288.623 452.689 288.783 452.713V454.154C288.6 454.115 288.428 454.094 288.268 454.09C287.74 454.09 287.34 454.258 287.066 454.594C286.797 454.93 286.662 455.35 286.662 455.854V459H285.15Z" fill="#7D7D7D"/>
<path d="M289.861 451.898V450.346H291.467V451.898H289.861ZM289.908 459V452.76H291.432V459H289.908Z" fill="#7D7D7D"/>
<path d="M293.219 456.926V452.76H294.719V456.586C294.719 456.953 294.799 457.244 294.959 457.459C295.119 457.67 295.4 457.775 295.803 457.775C295.979 457.775 296.127 457.746 296.248 457.688C296.373 457.625 296.48 457.551 296.57 457.465C296.754 457.297 296.875 457.086 296.934 456.832C296.996 456.574 297.027 456.316 297.027 456.059V452.76H298.527V459H297.279L297.168 458.186C297.016 458.49 296.779 458.729 296.459 458.9C296.139 459.072 295.779 459.158 295.381 459.158C295.045 459.158 294.744 459.104 294.479 458.994C294.217 458.885 293.992 458.732 293.805 458.537C293.617 458.342 293.473 458.109 293.371 457.84C293.27 457.566 293.219 457.262 293.219 456.926Z" fill="#7D7D7D"/>
<path d="M300.396 459V452.76H301.645L301.762 453.586C301.938 453.297 302.174 453.061 302.471 452.877C302.768 452.693 303.123 452.602 303.537 452.602C303.979 452.602 304.348 452.693 304.645 452.877C304.941 453.057 305.168 453.305 305.324 453.621C305.508 453.293 305.762 453.041 306.086 452.865C306.41 452.689 306.785 452.602 307.211 452.602C307.883 452.602 308.389 452.805 308.729 453.211C309.068 453.613 309.238 454.139 309.238 454.787V459H307.75V455.121C307.75 454.738 307.684 454.441 307.551 454.23C307.422 454.02 307.168 453.914 306.789 453.914C306.574 453.914 306.391 453.965 306.238 454.066C306.086 454.164 305.959 454.295 305.857 454.459C305.76 454.623 305.686 454.805 305.635 455.004C305.588 455.203 305.564 455.398 305.564 455.59V459H304.076V455.121C304.076 454.738 304.01 454.441 303.877 454.23C303.748 454.02 303.496 453.914 303.121 453.914C302.906 453.914 302.723 453.965 302.57 454.066C302.418 454.164 302.289 454.295 302.184 454.459C302.078 454.623 302.002 454.805 301.955 455.004C301.908 455.203 301.885 455.398 301.885 455.59V459H300.396Z" fill="#7D7D7D"/>
</svg>
