<svg width="833" height="460" viewBox="0 0 833 460" fill="none" xmlns="http://www.w3.org/2000/svg">
<rect x="47" y="1" width="718" height="398" stroke="white" stroke-width="2"/>
<line x1="46" y1="352.307" x2="766" y2="352.307" stroke="white"/>
<line x1="46" y1="29.8068" x2="766" y2="29.8068" stroke="white"/>
<line x1="46" y1="137.307" x2="766" y2="137.307" stroke="white"/>
<path d="M11.7303 350.804C12.3276 350.804 12.8503 350.93 13.2983 351.182C13.7463 351.434 14.0916 351.793 14.3343 352.26C14.5863 352.727 14.7123 353.268 14.7123 353.884C14.7123 354.929 14.3996 355.751 13.7743 356.348C13.1489 356.945 12.2903 357.244 11.1983 357.244C10.4889 357.244 9.8496 357.109 9.28026 356.838C8.72026 356.567 8.26293 356.171 7.90826 355.648L9.09826 354.472C9.63026 355.256 10.3303 355.648 11.1983 355.648C11.7303 355.648 12.1503 355.489 12.4583 355.172C12.7663 354.855 12.9203 354.421 12.9203 353.87C12.9203 353.357 12.7756 352.951 12.4863 352.652C12.2063 352.344 11.8189 352.19 11.3243 352.19C11.0163 352.19 10.7316 352.255 10.4703 352.386C10.2183 352.517 10.0176 352.699 9.86826 352.932H8.44026L8.93026 347.584H13.8723V349.166H10.2183L9.99426 351.35H10.0223C10.2276 351.173 10.4749 351.037 10.7643 350.944C11.0629 350.851 11.3849 350.804 11.7303 350.804Z" fill="#7D7D7D"/>
<path d="M19.017 347.374C20.1744 347.374 21.061 347.803 21.677 348.662C22.3024 349.511 22.615 350.725 22.615 352.302C22.615 353.879 22.3024 355.097 21.677 355.956C21.0517 356.815 20.165 357.244 19.017 357.244C17.8597 357.244 16.9684 356.819 16.343 355.97C15.727 355.111 15.419 353.889 15.419 352.302C15.419 350.725 15.727 349.511 16.343 348.662C16.9684 347.803 17.8597 347.374 19.017 347.374ZM19.017 348.998C18.4384 348.998 17.9904 349.287 17.673 349.866C17.3557 350.445 17.197 351.257 17.197 352.302C17.197 353.347 17.3557 354.164 17.673 354.752C17.9997 355.331 18.4477 355.62 19.017 355.62C19.5864 355.62 20.0297 355.331 20.347 354.752C20.6644 354.164 20.823 353.347 20.823 352.302C20.823 351.257 20.6644 350.445 20.347 349.866C20.0297 349.287 19.5864 348.998 19.017 348.998Z" fill="#7D7D7D"/>
<path d="M26.1262 347.374C26.7889 347.374 27.3302 347.584 27.7502 348.004C28.1795 348.424 28.3942 348.97 28.3942 349.642C28.3942 350.314 28.1842 350.86 27.7642 351.28C27.3442 351.7 26.7982 351.91 26.1262 351.91C25.4635 351.91 24.9175 351.7 24.4882 351.28C24.0682 350.86 23.8582 350.314 23.8582 349.642C23.8582 348.97 24.0682 348.424 24.4882 348.004C24.9175 347.584 25.4635 347.374 26.1262 347.374ZM30.8162 347.584H31.7542L26.2242 357.034H25.2862L30.8162 347.584ZM26.1262 348.256C25.7249 348.256 25.4029 348.387 25.1602 348.648C24.9175 348.9 24.7962 349.231 24.7962 349.642C24.7962 350.053 24.9175 350.389 25.1602 350.65C25.4029 350.902 25.7249 351.028 26.1262 351.028C26.5275 351.028 26.8495 350.902 27.0922 350.65C27.3349 350.389 27.4562 350.053 27.4562 349.642C27.4562 349.231 27.3349 348.9 27.0922 348.648C26.8495 348.387 26.5275 348.256 26.1262 348.256ZM31.0262 352.568C31.6982 352.568 32.2442 352.778 32.6642 353.198C33.0842 353.618 33.2942 354.164 33.2942 354.836C33.2942 355.508 33.0795 356.054 32.6502 356.474C32.2302 356.894 31.6889 357.104 31.0262 357.104C30.3635 357.104 29.8175 356.894 29.3882 356.474C28.9682 356.054 28.7582 355.508 28.7582 354.836C28.7582 354.164 28.9682 353.618 29.3882 353.198C29.8082 352.778 30.3542 352.568 31.0262 352.568ZM31.0262 353.45C30.6249 353.45 30.3029 353.581 30.0602 353.842C29.8175 354.094 29.6962 354.425 29.6962 354.836C29.6962 355.247 29.8175 355.583 30.0602 355.844C30.3029 356.096 30.6249 356.222 31.0262 356.222C31.4275 356.222 31.7495 356.096 31.9922 355.844C32.2349 355.583 32.3562 355.247 32.3562 354.836C32.3562 354.425 32.2349 354.094 31.9922 353.842C31.7495 353.581 31.4275 353.45 31.0262 353.45Z" fill="#7D7D7D"/>
<path d="M0.118248 33.2181L3.33825 29.7741C3.78625 29.3074 4.09892 28.9201 4.27625 28.6121C4.46292 28.2948 4.55625 27.9868 4.55625 27.6881C4.55625 27.3054 4.43958 27.0068 4.20625 26.7921C3.97291 26.5774 3.65558 26.4701 3.25425 26.4701C2.81558 26.4701 2.47025 26.5961 2.21825 26.8481C1.96625 27.0908 1.83558 27.4361 1.82625 27.8841H0.0902481C0.108915 26.9414 0.402915 26.2041 0.972248 25.6721C1.54158 25.1401 2.32091 24.8741 3.31025 24.8741C4.25291 24.8741 4.99025 25.1168 5.52225 25.6021C6.06358 26.0781 6.33425 26.7361 6.33425 27.5761C6.33425 28.0988 6.21292 28.5934 5.97025 29.0601C5.72758 29.5174 5.31692 30.0401 4.73825 30.6281L2.49825 32.9661L6.34825 32.9521V34.5341H0.118248V33.2181Z" fill="#7D7D7D"/>
<path d="M10.7319 24.8741C11.8892 24.8741 12.7759 25.3034 13.3919 26.1621C14.0172 27.0114 14.3299 28.2248 14.3299 29.8021C14.3299 31.3794 14.0172 32.5974 13.3919 33.4561C12.7666 34.3148 11.8799 34.7441 10.7319 34.7441C9.57456 34.7441 8.68322 34.3194 8.05789 33.4701C7.44189 32.6114 7.13389 31.3888 7.13389 29.8021C7.13389 28.2248 7.44189 27.0114 8.05789 26.1621C8.68322 25.3034 9.57456 24.8741 10.7319 24.8741ZM10.7319 26.4981C10.1532 26.4981 9.70522 26.7874 9.38789 27.3661C9.07056 27.9448 8.91189 28.7568 8.91189 29.8021C8.91189 30.8474 9.07056 31.6641 9.38789 32.2521C9.71456 32.8308 10.1626 33.1201 10.7319 33.1201C11.3012 33.1201 11.7446 32.8308 12.0619 32.2521C12.3792 31.6641 12.5379 30.8474 12.5379 29.8021C12.5379 28.7568 12.3792 27.9448 12.0619 27.3661C11.7446 26.7874 11.3012 26.4981 10.7319 26.4981Z" fill="#7D7D7D"/>
<path d="M19.017 24.8741C20.1744 24.8741 21.061 25.3034 21.677 26.1621C22.3024 27.0114 22.615 28.2248 22.615 29.8021C22.615 31.3794 22.3024 32.5974 21.677 33.4561C21.0517 34.3148 20.165 34.7441 19.017 34.7441C17.8597 34.7441 16.9684 34.3194 16.343 33.4701C15.727 32.6114 15.419 31.3888 15.419 29.8021C15.419 28.2248 15.727 27.0114 16.343 26.1621C16.9684 25.3034 17.8597 24.8741 19.017 24.8741ZM19.017 26.4981C18.4384 26.4981 17.9904 26.7874 17.673 27.3661C17.3557 27.9448 17.197 28.7568 17.197 29.8021C17.197 30.8474 17.3557 31.6641 17.673 32.2521C17.9997 32.8308 18.4477 33.1201 19.017 33.1201C19.5864 33.1201 20.0297 32.8308 20.347 32.2521C20.6644 31.6641 20.823 30.8474 20.823 29.8021C20.823 28.7568 20.6644 27.9448 20.347 27.3661C20.0297 26.7874 19.5864 26.4981 19.017 26.4981Z" fill="#7D7D7D"/>
<path d="M26.1262 24.8741C26.7889 24.8741 27.3302 25.0841 27.7502 25.5041C28.1795 25.9241 28.3942 26.4701 28.3942 27.1421C28.3942 27.8141 28.1842 28.3601 27.7642 28.7801C27.3442 29.2001 26.7982 29.4101 26.1262 29.4101C25.4635 29.4101 24.9175 29.2001 24.4882 28.7801C24.0682 28.3601 23.8582 27.8141 23.8582 27.1421C23.8582 26.4701 24.0682 25.9241 24.4882 25.5041C24.9175 25.0841 25.4635 24.8741 26.1262 24.8741ZM30.8162 25.0841H31.7542L26.2242 34.5341H25.2862L30.8162 25.0841ZM26.1262 25.7561C25.7249 25.7561 25.4029 25.8868 25.1602 26.1481C24.9175 26.4001 24.7962 26.7314 24.7962 27.1421C24.7962 27.5528 24.9175 27.8888 25.1602 28.1501C25.4029 28.4021 25.7249 28.5281 26.1262 28.5281C26.5275 28.5281 26.8495 28.4021 27.0922 28.1501C27.3349 27.8888 27.4562 27.5528 27.4562 27.1421C27.4562 26.7314 27.3349 26.4001 27.0922 26.1481C26.8495 25.8868 26.5275 25.7561 26.1262 25.7561ZM31.0262 30.0681C31.6982 30.0681 32.2442 30.2781 32.6642 30.6981C33.0842 31.1181 33.2942 31.6641 33.2942 32.3361C33.2942 33.0081 33.0795 33.5541 32.6502 33.9741C32.2302 34.3941 31.6889 34.6041 31.0262 34.6041C30.3635 34.6041 29.8175 34.3941 29.3882 33.9741C28.9682 33.5541 28.7582 33.0081 28.7582 32.3361C28.7582 31.6641 28.9682 31.1181 29.3882 30.6981C29.8082 30.2781 30.3542 30.0681 31.0262 30.0681ZM31.0262 30.9501C30.6249 30.9501 30.3029 31.0808 30.0602 31.3421C29.8175 31.5941 29.6962 31.9254 29.6962 32.3361C29.6962 32.7468 29.8175 33.0828 30.0602 33.3441C30.3029 33.5961 30.6249 33.7221 31.0262 33.7221C31.4275 33.7221 31.7495 33.5961 31.9922 33.3441C32.2349 33.0828 32.3562 32.7468 32.3562 32.3361C32.3562 31.9254 32.2349 31.5941 31.9922 31.3421C31.7495 31.0808 31.4275 30.9501 31.0262 30.9501Z" fill="#7D7D7D"/>
<path d="M6.4433 142.034H4.70729V134.264H4.14729V132.584H6.4433V142.034Z" fill="#7D7D7D"/>
<path d="M11.7303 135.804C12.3276 135.804 12.8503 135.93 13.2983 136.182C13.7463 136.434 14.0916 136.793 14.3343 137.26C14.5863 137.727 14.7123 138.268 14.7123 138.884C14.7123 139.929 14.3996 140.751 13.7743 141.348C13.1489 141.945 12.2903 142.244 11.1983 142.244C10.4889 142.244 9.8496 142.109 9.28026 141.838C8.72026 141.567 8.26293 141.171 7.90826 140.648L9.09826 139.472C9.63026 140.256 10.3303 140.648 11.1983 140.648C11.7303 140.648 12.1503 140.489 12.4583 140.172C12.7663 139.855 12.9203 139.421 12.9203 138.87C12.9203 138.357 12.7756 137.951 12.4863 137.652C12.2063 137.344 11.8189 137.19 11.3243 137.19C11.0163 137.19 10.7316 137.255 10.4703 137.386C10.2183 137.517 10.0176 137.699 9.86826 137.932H8.44026L8.93026 132.584H13.8723V134.166H10.2183L9.99426 136.35H10.0223C10.2276 136.173 10.4749 136.037 10.7643 135.944C11.0629 135.851 11.3849 135.804 11.7303 135.804Z" fill="#7D7D7D"/>
<path d="M19.017 132.374C20.1744 132.374 21.061 132.803 21.677 133.662C22.3024 134.511 22.615 135.725 22.615 137.302C22.615 138.879 22.3024 140.097 21.677 140.956C21.0517 141.815 20.165 142.244 19.017 142.244C17.8597 142.244 16.9684 141.819 16.343 140.97C15.727 140.111 15.419 138.889 15.419 137.302C15.419 135.725 15.727 134.511 16.343 133.662C16.9684 132.803 17.8597 132.374 19.017 132.374ZM19.017 133.998C18.4384 133.998 17.9904 134.287 17.673 134.866C17.3557 135.445 17.197 136.257 17.197 137.302C17.197 138.347 17.3557 139.164 17.673 139.752C17.9997 140.331 18.4477 140.62 19.017 140.62C19.5864 140.62 20.0297 140.331 20.347 139.752C20.6644 139.164 20.823 138.347 20.823 137.302C20.823 136.257 20.6644 135.445 20.347 134.866C20.0297 134.287 19.5864 133.998 19.017 133.998Z" fill="#7D7D7D"/>
<path d="M26.1262 132.374C26.7889 132.374 27.3302 132.584 27.7502 133.004C28.1795 133.424 28.3942 133.97 28.3942 134.642C28.3942 135.314 28.1842 135.86 27.7642 136.28C27.3442 136.7 26.7982 136.91 26.1262 136.91C25.4635 136.91 24.9175 136.7 24.4882 136.28C24.0682 135.86 23.8582 135.314 23.8582 134.642C23.8582 133.97 24.0682 133.424 24.4882 133.004C24.9175 132.584 25.4635 132.374 26.1262 132.374ZM30.8162 132.584H31.7542L26.2242 142.034H25.2862L30.8162 132.584ZM26.1262 133.256C25.7249 133.256 25.4029 133.387 25.1602 133.648C24.9175 133.9 24.7962 134.231 24.7962 134.642C24.7962 135.053 24.9175 135.389 25.1602 135.65C25.4029 135.902 25.7249 136.028 26.1262 136.028C26.5275 136.028 26.8495 135.902 27.0922 135.65C27.3349 135.389 27.4562 135.053 27.4562 134.642C27.4562 134.231 27.3349 133.9 27.0922 133.648C26.8495 133.387 26.5275 133.256 26.1262 133.256ZM31.0262 137.568C31.6982 137.568 32.2442 137.778 32.6642 138.198C33.0842 138.618 33.2942 139.164 33.2942 139.836C33.2942 140.508 33.0795 141.054 32.6502 141.474C32.2302 141.894 31.6889 142.104 31.0262 142.104C30.3635 142.104 29.8175 141.894 29.3882 141.474C28.9682 141.054 28.7582 140.508 28.7582 139.836C28.7582 139.164 28.9682 138.618 29.3882 138.198C29.8082 137.778 30.3542 137.568 31.0262 137.568ZM31.0262 138.45C30.6249 138.45 30.3029 138.581 30.0602 138.842C29.8175 139.094 29.6962 139.425 29.6962 139.836C29.6962 140.247 29.8175 140.583 30.0602 140.844C30.3029 141.096 30.6249 141.222 31.0262 141.222C31.4275 141.222 31.7495 141.096 31.9922 140.844C32.2349 140.583 32.3562 140.247 32.3562 139.836C32.3562 139.425 32.2349 139.094 31.9922 138.842C31.7495 138.581 31.4275 138.45 31.0262 138.45Z" fill="#7D7D7D"/>
<path d="M5.60931 249.534H3.87331V241.764H3.31331V240.084H5.60931V249.534Z" fill="#7D7D7D"/>
<path d="M10.7319 239.874C11.8892 239.874 12.7759 240.303 13.3919 241.162C14.0172 242.011 14.3299 243.225 14.3299 244.802C14.3299 246.379 14.0172 247.597 13.3919 248.456C12.7666 249.315 11.8799 249.744 10.7319 249.744C9.57456 249.744 8.68322 249.319 8.05789 248.47C7.44189 247.611 7.13389 246.389 7.13389 244.802C7.13389 243.225 7.44189 242.011 8.05789 241.162C8.68322 240.303 9.57456 239.874 10.7319 239.874ZM10.7319 241.498C10.1532 241.498 9.70522 241.787 9.38789 242.366C9.07056 242.945 8.91189 243.757 8.91189 244.802C8.91189 245.847 9.07056 246.664 9.38789 247.252C9.71456 247.831 10.1626 248.12 10.7319 248.12C11.3012 248.12 11.7446 247.831 12.0619 247.252C12.3792 246.664 12.5379 245.847 12.5379 244.802C12.5379 243.757 12.3792 242.945 12.0619 242.366C11.7446 241.787 11.3012 241.498 10.7319 241.498Z" fill="#7D7D7D"/>
<path d="M19.017 239.874C20.1744 239.874 21.061 240.303 21.677 241.162C22.3024 242.011 22.615 243.225 22.615 244.802C22.615 246.379 22.3024 247.597 21.677 248.456C21.0517 249.315 20.165 249.744 19.017 249.744C17.8597 249.744 16.9684 249.319 16.343 248.47C15.727 247.611 15.419 246.389 15.419 244.802C15.419 243.225 15.727 242.011 16.343 241.162C16.9684 240.303 17.8597 239.874 19.017 239.874ZM19.017 241.498C18.4384 241.498 17.9904 241.787 17.673 242.366C17.3557 242.945 17.197 243.757 17.197 244.802C17.197 245.847 17.3557 246.664 17.673 247.252C17.9997 247.831 18.4477 248.12 19.017 248.12C19.5864 248.12 20.0297 247.831 20.347 247.252C20.6644 246.664 20.823 245.847 20.823 244.802C20.823 243.757 20.6644 242.945 20.347 242.366C20.0297 241.787 19.5864 241.498 19.017 241.498Z" fill="#7D7D7D"/>
<path d="M26.1262 239.874C26.7889 239.874 27.3302 240.084 27.7502 240.504C28.1795 240.924 28.3942 241.47 28.3942 242.142C28.3942 242.814 28.1842 243.36 27.7642 243.78C27.3442 244.2 26.7982 244.41 26.1262 244.41C25.4635 244.41 24.9175 244.2 24.4882 243.78C24.0682 243.36 23.8582 242.814 23.8582 242.142C23.8582 241.47 24.0682 240.924 24.4882 240.504C24.9175 240.084 25.4635 239.874 26.1262 239.874ZM30.8162 240.084H31.7542L26.2242 249.534H25.2862L30.8162 240.084ZM26.1262 240.756C25.7249 240.756 25.4029 240.887 25.1602 241.148C24.9175 241.4 24.7962 241.731 24.7962 242.142C24.7962 242.553 24.9175 242.889 25.1602 243.15C25.4029 243.402 25.7249 243.528 26.1262 243.528C26.5275 243.528 26.8495 243.402 27.0922 243.15C27.3349 242.889 27.4562 242.553 27.4562 242.142C27.4562 241.731 27.3349 241.4 27.0922 241.148C26.8495 240.887 26.5275 240.756 26.1262 240.756ZM31.0262 245.068C31.6982 245.068 32.2442 245.278 32.6642 245.698C33.0842 246.118 33.2942 246.664 33.2942 247.336C33.2942 248.008 33.0795 248.554 32.6502 248.974C32.2302 249.394 31.6889 249.604 31.0262 249.604C30.3635 249.604 29.8175 249.394 29.3882 248.974C28.9682 248.554 28.7582 248.008 28.7582 247.336C28.7582 246.664 28.9682 246.118 29.3882 245.698C29.8082 245.278 30.3542 245.068 31.0262 245.068ZM31.0262 245.95C30.6249 245.95 30.3029 246.081 30.0602 246.342C29.8175 246.594 29.6962 246.925 29.6962 247.336C29.6962 247.747 29.8175 248.083 30.0602 248.344C30.3029 248.596 30.6249 248.722 31.0262 248.722C31.4275 248.722 31.7495 248.596 31.9922 248.344C32.2349 248.083 32.3562 247.747 32.3562 247.336C32.3562 246.925 32.2349 246.594 31.9922 246.342C31.7495 246.081 31.4275 245.95 31.0262 245.95Z" fill="#7D7D7D"/>
<line x1="46" y1="244.807" x2="766" y2="244.807" stroke="white"/>
<line x1="46" y1="193.5" x2="766" y2="193.5" stroke="white" stroke-opacity="0.5"/>
<line x1="46" y1="86" x2="766" y2="86" stroke="white" stroke-opacity="0.5"/>
<line x1="46" y1="301" x2="766" y2="301" stroke="white" stroke-opacity="0.5"/>
<line x1="123.5" y1="400" x2="123.5" y2="1" stroke="white"/>
<line x1="217.5" y1="400" x2="217.5" y2="1" stroke="white"/>
<line x1="311.5" y1="400" x2="311.5" y2="1" stroke="white"/>
<line x1="405.5" y1="400" x2="405.5" y2="1" stroke="white"/>
<line x1="499.5" y1="400" x2="499.5" y2="1" stroke="white"/>
<line x1="593.5" y1="400" x2="593.5" y2="1" stroke="white"/>
<path d="M120.859 418.684L124.079 415.24C124.527 414.773 124.84 414.386 125.017 414.078C125.204 413.761 125.297 413.453 125.297 413.154C125.297 412.771 125.181 412.473 124.947 412.258C124.714 412.043 124.397 411.936 123.995 411.936C123.557 411.936 123.211 412.062 122.959 412.314C122.707 412.557 122.577 412.902 122.567 413.35H120.831C120.85 412.407 121.144 411.67 121.713 411.138C122.283 410.606 123.062 410.34 124.051 410.34C124.994 410.34 125.731 410.583 126.263 411.068C126.805 411.544 127.075 412.202 127.075 413.042C127.075 413.565 126.954 414.059 126.711 414.526C126.469 414.983 126.058 415.506 125.479 416.094L123.239 418.432L127.089 418.418V420H120.859V418.684Z" fill="#7D7D7D"/>
<path d="M221.538 418.376H220.6V420H218.962V418.376H214.342V417.004L218.878 410.55H220.6V416.808H221.538V418.376ZM218.962 416.808V412.86H218.906L216.134 416.808H218.962Z" fill="#7D7D7D"/>
<path d="M312.085 420.21C311.366 420.21 310.736 420.065 310.195 419.776C309.663 419.487 309.252 419.081 308.963 418.558C308.674 418.026 308.529 417.405 308.529 416.696C308.529 415.977 308.669 415.296 308.949 414.652C309.229 413.999 309.682 413.303 310.307 412.566L312.057 410.48H314.157L310.769 414.4L310.811 414.428C311.082 414.157 311.352 413.966 311.623 413.854C311.894 413.733 312.202 413.672 312.547 413.672C313.135 413.672 313.658 413.807 314.115 414.078C314.572 414.339 314.927 414.713 315.179 415.198C315.431 415.683 315.557 416.239 315.557 416.864C315.557 417.517 315.408 418.096 315.109 418.6C314.82 419.104 314.409 419.501 313.877 419.79C313.354 420.07 312.757 420.21 312.085 420.21ZM312.043 418.614C312.556 418.614 312.972 418.455 313.289 418.138C313.606 417.821 313.765 417.401 313.765 416.878C313.765 416.355 313.606 415.935 313.289 415.618C312.972 415.301 312.552 415.142 312.029 415.142C311.516 415.142 311.1 415.301 310.783 415.618C310.466 415.935 310.307 416.355 310.307 416.878C310.307 417.401 310.466 417.821 310.783 418.138C311.1 418.455 311.52 418.614 312.043 418.614Z" fill="#7D7D7D"/>
<path d="M405.996 420.21C404.941 420.21 404.11 419.963 403.504 419.468C402.897 418.964 402.594 418.273 402.594 417.396C402.594 416.789 402.752 416.271 403.07 415.842C403.387 415.413 403.821 415.128 404.372 414.988V414.946C403.914 414.815 403.546 414.559 403.266 414.176C402.995 413.793 402.859 413.355 402.859 412.86C402.859 412.095 403.144 411.483 403.714 411.026C404.283 410.569 405.044 410.34 405.996 410.34C406.957 410.34 407.717 410.569 408.277 411.026C408.847 411.474 409.132 412.085 409.132 412.86C409.132 413.364 408.996 413.807 408.725 414.19C408.455 414.563 408.091 414.815 407.634 414.946V414.988C408.184 415.128 408.618 415.413 408.936 415.842C409.253 416.271 409.411 416.789 409.411 417.396C409.411 418.273 409.104 418.964 408.488 419.468C407.881 419.963 407.05 420.21 405.996 420.21ZM405.996 414.246C406.397 414.246 406.714 414.139 406.948 413.924C407.19 413.7 407.311 413.406 407.311 413.042C407.311 412.669 407.19 412.375 406.948 412.16C406.714 411.945 406.397 411.838 405.996 411.838C405.594 411.838 405.272 411.945 405.03 412.16C404.796 412.375 404.68 412.669 404.68 413.042C404.68 413.406 404.801 413.7 405.044 413.924C405.286 414.139 405.604 414.246 405.996 414.246ZM405.996 418.67C406.49 418.67 406.878 418.535 407.158 418.264C407.438 417.993 407.578 417.625 407.578 417.158C407.578 416.701 407.433 416.337 407.143 416.066C406.854 415.786 406.472 415.646 405.996 415.646C405.529 415.646 405.151 415.786 404.862 416.066C404.572 416.337 404.428 416.701 404.428 417.158C404.428 417.625 404.568 417.993 404.848 418.264C405.128 418.535 405.51 418.67 405.996 418.67Z" fill="#7D7D7D"/>
<path d="M496.95 420H495.214V412.23H494.654V410.55H496.95V420Z" fill="#7D7D7D"/>
<path d="M502.073 410.34C503.23 410.34 504.117 410.769 504.733 411.628C505.358 412.477 505.671 413.691 505.671 415.268C505.671 416.845 505.358 418.063 504.733 418.922C504.107 419.781 503.221 420.21 502.073 420.21C500.915 420.21 500.024 419.785 499.399 418.936C498.783 418.077 498.475 416.855 498.475 415.268C498.475 413.691 498.783 412.477 499.399 411.628C500.024 410.769 500.915 410.34 502.073 410.34ZM502.073 411.964C501.494 411.964 501.046 412.253 500.729 412.832C500.411 413.411 500.253 414.223 500.253 415.268C500.253 416.313 500.411 417.13 500.729 417.718C501.055 418.297 501.503 418.586 502.073 418.586C502.642 418.586 503.085 418.297 503.403 417.718C503.72 417.13 503.879 416.313 503.879 415.268C503.879 414.223 503.72 413.411 503.403 412.832C503.085 412.253 502.642 411.964 502.073 411.964Z" fill="#7D7D7D"/>
<path d="M591.34 420H589.604V412.23H589.044V410.55H591.34V420Z" fill="#7D7D7D"/>
<path d="M593.081 418.684L596.301 415.24C596.749 414.773 597.062 414.386 597.239 414.078C597.426 413.761 597.519 413.453 597.519 413.154C597.519 412.771 597.402 412.473 597.169 412.258C596.936 412.043 596.618 411.936 596.217 411.936C595.778 411.936 595.433 412.062 595.181 412.314C594.929 412.557 594.798 412.902 594.789 413.35H593.053C593.072 412.407 593.366 411.67 593.935 411.138C594.504 410.606 595.284 410.34 596.273 410.34C597.216 410.34 597.953 410.583 598.485 411.068C599.026 411.544 599.297 412.202 599.297 413.042C599.297 413.565 599.176 414.059 598.933 414.526C598.69 414.983 598.28 415.506 597.701 416.094L595.461 418.432L599.311 418.418V420H593.081V418.684Z" fill="#7D7D7D"/>
<path d="M685.059 420H683.324V412.23H682.764V410.55H685.059V420Z" fill="#7D7D7D"/>
<path d="M693.732 418.376H692.794V420H691.156V418.376H686.536V417.004L691.072 410.55H692.794V416.808H693.732V418.376ZM691.156 416.808V412.86H691.1L688.328 416.808H691.156Z" fill="#7D7D7D"/>
<line x1="687.5" y1="400" x2="687.5" y2="1" stroke="white"/>
<path d="M76 353L123 365H171L217.5 334.5L264.5 325.5L311.5 258L358 239.5L405 224.5L452 213.5H498.5L545.5 231L593.5 200.5L639 208L686 185L734 195" stroke="#E24000" stroke-width="4"/>
<path d="M76 333L123 315L171 285L217.5 274.5L264.5 277.5L311.5 236L358 209.5L405 174.5L452 189.5L498.5 179.5L545.5 161L593.5 150.5L639 132L686 155L734 135" stroke="#434878" stroke-width="4"/>
<path d="M76 308L123 329L171 317L217.5 305.5L264.5 264.5L311.5 203L358 207.5L405 161.5L452 151.5L498.5 112.5L545.5 101L593.5 97.5L639 129L686 92L734 72" stroke="#2C897F" stroke-width="4"/>
<path d="M76 321L123 311.544L171 286.958L217.5 276.083L264.5 237.313L311.5 169.701L358 149.37H405L452 125.73L498.5 99.2523L545.5 44.8792L593.5 44.4063L639 61.9003L686 8L734 36.3686" stroke="#94AABD" stroke-width="4"/>
<line x1="288" y1="430" x2="288" y2="2" stroke="#7D7D7D" stroke-width="2" stroke-dasharray="2 2"/>
<line x1="48" y1="245" x2="783" y2="245" stroke="#7D7D7D" stroke-width="2" stroke-dasharray="2 2"/>
<path d="M270.096 440.895C270.096 440.391 270.17 439.924 270.318 439.494C270.467 439.064 270.693 438.699 270.998 438.398C271.229 438.16 271.51 437.969 271.842 437.824C272.174 437.676 272.557 437.602 272.99 437.602C273.455 437.602 273.887 437.697 274.285 437.889C274.684 438.076 275.012 438.365 275.27 438.756C275.5 439.1 275.646 439.441 275.709 439.781C275.775 440.121 275.809 440.504 275.809 440.93C275.801 440.984 275.797 441.035 275.797 441.082V441.346H271.619C271.619 441.365 271.619 441.387 271.619 441.41C271.619 441.629 271.654 441.836 271.725 442.031C271.803 442.25 271.92 442.43 272.076 442.57C272.189 442.676 272.318 442.768 272.463 442.846C272.611 442.92 272.791 442.957 273.002 442.957C273.217 442.957 273.395 442.936 273.535 442.893C273.676 442.846 273.801 442.768 273.91 442.658C274.055 442.514 274.154 442.338 274.209 442.131H275.65C275.635 442.314 275.572 442.516 275.463 442.734C275.357 442.953 275.244 443.135 275.123 443.279C274.857 443.592 274.541 443.816 274.174 443.953C273.807 444.09 273.424 444.158 273.025 444.158C272.592 444.158 272.217 444.088 271.9 443.947C271.584 443.807 271.303 443.621 271.057 443.391C270.744 443.086 270.506 442.723 270.342 442.301C270.178 441.875 270.096 441.406 270.096 440.895ZM271.607 440.256H274.309C274.301 439.799 274.172 439.436 273.922 439.166C273.816 439.053 273.686 438.965 273.529 438.902C273.377 438.836 273.193 438.803 272.979 438.803C272.748 438.803 272.543 438.848 272.363 438.938C272.188 439.023 272.043 439.139 271.93 439.283C271.816 439.42 271.736 439.564 271.689 439.717C271.643 439.869 271.615 440.049 271.607 440.256Z" fill="#7D7D7D"/>
<path d="M277.209 444V437.76H278.469L278.574 438.562C278.758 438.234 279.02 437.992 279.359 437.836C279.699 437.68 280.051 437.602 280.414 437.602C280.75 437.602 281.047 437.658 281.305 437.771C281.566 437.885 281.787 438.039 281.967 438.234C282.146 438.43 282.283 438.666 282.377 438.943C282.475 439.217 282.523 439.514 282.523 439.834V444H281.023V440.174C281.023 439.807 280.951 439.52 280.807 439.312C280.662 439.102 280.391 438.996 279.992 438.996C279.727 438.996 279.506 439.07 279.33 439.219C279.154 439.367 279.016 439.557 278.914 439.787C278.801 440.033 278.738 440.307 278.727 440.607C278.715 440.908 278.709 441.191 278.709 441.457V444H277.209Z" fill="#7D7D7D"/>
<path d="M283.865 440.895C283.865 439.656 284.236 438.727 284.979 438.105C285.17 437.945 285.393 437.822 285.646 437.736C285.9 437.646 286.188 437.602 286.508 437.602C286.906 437.602 287.242 437.66 287.516 437.777C287.793 437.895 288 438.033 288.137 438.193V435.334H289.637V444H288.342L288.248 443.314C288.064 443.604 287.812 443.814 287.492 443.947C287.172 444.08 286.84 444.146 286.496 444.146C286.184 444.146 285.898 444.098 285.641 444C285.387 443.902 285.162 443.773 284.967 443.613C284.592 443.309 284.314 442.928 284.135 442.471C283.955 442.01 283.865 441.484 283.865 440.895ZM285.389 440.865C285.389 441.139 285.414 441.41 285.465 441.68C285.52 441.945 285.627 442.184 285.787 442.395C285.9 442.531 286.037 442.648 286.197 442.746C286.361 442.84 286.561 442.887 286.795 442.887C287.092 442.887 287.332 442.824 287.516 442.699C287.699 442.574 287.842 442.414 287.943 442.219C288.049 442.023 288.119 441.805 288.154 441.562C288.189 441.32 288.207 441.088 288.207 440.865C288.207 440.643 288.189 440.414 288.154 440.18C288.119 439.941 288.049 439.725 287.943 439.529C287.842 439.334 287.699 439.174 287.516 439.049C287.332 438.924 287.092 438.861 286.795 438.861C286.564 438.861 286.365 438.91 286.197 439.008C286.033 439.105 285.896 439.221 285.787 439.354C285.627 439.561 285.52 439.797 285.465 440.062C285.414 440.328 285.389 440.596 285.389 440.865Z" fill="#7D7D7D"/>
<path d="M293.58 440.883C293.58 440.355 293.645 439.914 293.773 439.559C293.902 439.199 294.082 438.871 294.312 438.574C294.527 438.309 294.824 438.08 295.203 437.889C295.586 437.697 296.018 437.602 296.498 437.602C296.979 437.602 297.408 437.699 297.787 437.895C298.166 438.086 298.463 438.312 298.678 438.574C298.908 438.871 299.088 439.199 299.217 439.559C299.346 439.914 299.41 440.355 299.41 440.883C299.41 441.41 299.346 441.852 299.217 442.207C299.092 442.562 298.912 442.889 298.678 443.186C298.463 443.451 298.166 443.68 297.787 443.871C297.408 444.062 296.979 444.158 296.498 444.158C296.018 444.158 295.586 444.062 295.203 443.871C294.824 443.676 294.527 443.447 294.312 443.186C294.082 442.889 293.902 442.562 293.773 442.207C293.645 441.852 293.58 441.41 293.58 440.883ZM295.104 440.883C295.104 441.18 295.131 441.467 295.186 441.744C295.244 442.018 295.365 442.254 295.549 442.453C295.654 442.566 295.785 442.66 295.941 442.734C296.102 442.809 296.287 442.846 296.498 442.846C296.705 442.846 296.889 442.809 297.049 442.734C297.209 442.656 297.34 442.562 297.441 442.453C297.625 442.254 297.744 442.018 297.799 441.744C297.857 441.467 297.887 441.18 297.887 440.883C297.887 440.586 297.859 440.299 297.805 440.021C297.75 439.744 297.629 439.506 297.441 439.307C297.336 439.193 297.203 439.1 297.043 439.025C296.887 438.951 296.705 438.914 296.498 438.914C296.291 438.914 296.107 438.953 295.947 439.031C295.787 439.105 295.654 439.197 295.549 439.307C295.365 439.506 295.244 439.744 295.186 440.021C295.131 440.299 295.104 440.586 295.104 440.883Z" fill="#7D7D7D"/>
<path d="M300.055 438.996V437.76H301.109V437.162C301.109 436.588 301.295 436.117 301.666 435.75C302.037 435.379 302.559 435.193 303.23 435.193C303.445 435.193 303.637 435.203 303.805 435.223C303.977 435.242 304.178 435.275 304.408 435.322V436.523C304.248 436.492 304.094 436.469 303.945 436.453C303.797 436.438 303.623 436.43 303.424 436.43C303.15 436.43 302.945 436.5 302.809 436.641C302.676 436.777 302.609 436.959 302.609 437.186V437.76H304.279V438.996H302.609V444H301.109V438.996H300.055Z" fill="#7D7D7D"/>
<path d="M254.861 459V452.76H256.109L256.227 453.586C256.402 453.297 256.639 453.061 256.936 452.877C257.232 452.693 257.588 452.602 258.002 452.602C258.443 452.602 258.812 452.693 259.109 452.877C259.406 453.057 259.633 453.305 259.789 453.621C259.973 453.293 260.227 453.041 260.551 452.865C260.875 452.689 261.25 452.602 261.676 452.602C262.348 452.602 262.854 452.805 263.193 453.211C263.533 453.613 263.703 454.139 263.703 454.787V459H262.215V455.121C262.215 454.738 262.148 454.441 262.016 454.23C261.887 454.02 261.633 453.914 261.254 453.914C261.039 453.914 260.855 453.965 260.703 454.066C260.551 454.164 260.424 454.295 260.322 454.459C260.225 454.623 260.15 454.805 260.1 455.004C260.053 455.203 260.029 455.398 260.029 455.59V459H258.541V455.121C258.541 454.738 258.475 454.441 258.342 454.23C258.213 454.02 257.961 453.914 257.586 453.914C257.371 453.914 257.188 453.965 257.035 454.066C256.883 454.164 256.754 454.295 256.648 454.459C256.543 454.623 256.467 454.805 256.42 455.004C256.373 455.203 256.35 455.398 256.35 455.59V459H254.861Z" fill="#7D7D7D"/>
<path d="M265.045 455.883C265.045 455.355 265.109 454.914 265.238 454.559C265.367 454.199 265.547 453.871 265.777 453.574C265.992 453.309 266.289 453.08 266.668 452.889C267.051 452.697 267.482 452.602 267.963 452.602C268.443 452.602 268.873 452.699 269.252 452.895C269.631 453.086 269.928 453.312 270.143 453.574C270.373 453.871 270.553 454.199 270.682 454.559C270.811 454.914 270.875 455.355 270.875 455.883C270.875 456.41 270.811 456.852 270.682 457.207C270.557 457.562 270.377 457.889 270.143 458.186C269.928 458.451 269.631 458.68 269.252 458.871C268.873 459.062 268.443 459.158 267.963 459.158C267.482 459.158 267.051 459.062 266.668 458.871C266.289 458.676 265.992 458.447 265.777 458.186C265.547 457.889 265.367 457.562 265.238 457.207C265.109 456.852 265.045 456.41 265.045 455.883ZM266.568 455.883C266.568 456.18 266.596 456.467 266.65 456.744C266.709 457.018 266.83 457.254 267.014 457.453C267.119 457.566 267.25 457.66 267.406 457.734C267.566 457.809 267.752 457.846 267.963 457.846C268.17 457.846 268.354 457.809 268.514 457.734C268.674 457.656 268.805 457.562 268.906 457.453C269.09 457.254 269.209 457.018 269.264 456.744C269.322 456.467 269.352 456.18 269.352 455.883C269.352 455.586 269.324 455.299 269.27 455.021C269.215 454.744 269.094 454.506 268.906 454.307C268.801 454.193 268.668 454.1 268.508 454.025C268.352 453.951 268.17 453.914 267.963 453.914C267.756 453.914 267.572 453.953 267.412 454.031C267.252 454.105 267.119 454.197 267.014 454.307C266.83 454.506 266.709 454.744 266.65 455.021C266.596 455.299 266.568 455.586 266.568 455.883Z" fill="#7D7D7D"/>
<path d="M272.322 459V452.76H273.594L273.723 453.697C273.867 453.338 274.105 453.078 274.438 452.918C274.77 452.758 275.119 452.678 275.486 452.678C275.639 452.678 275.795 452.689 275.955 452.713V454.154C275.771 454.115 275.6 454.094 275.439 454.09C274.912 454.09 274.512 454.258 274.238 454.594C273.969 454.93 273.834 455.35 273.834 455.854V459H272.322Z" fill="#7D7D7D"/>
<path d="M276.424 457.201C276.424 456.904 276.477 456.641 276.582 456.41C276.691 456.176 276.842 455.975 277.033 455.807C277.225 455.639 277.447 455.51 277.701 455.42C277.959 455.326 278.236 455.268 278.533 455.244L280.367 455.109V454.729C280.367 454.432 280.297 454.193 280.156 454.014C280.02 453.834 279.738 453.744 279.312 453.744C278.961 453.744 278.688 453.82 278.492 453.973C278.297 454.125 278.191 454.346 278.176 454.635H276.723C276.746 454.283 276.828 453.979 276.969 453.721C277.109 453.463 277.295 453.252 277.525 453.088C277.756 452.924 278.023 452.803 278.328 452.725C278.633 452.643 278.961 452.602 279.312 452.602C279.848 452.602 280.326 452.697 280.748 452.889C281.17 453.076 281.473 453.406 281.656 453.879C281.734 454.078 281.783 454.285 281.803 454.5C281.822 454.715 281.832 454.928 281.832 455.139V457.453C281.832 457.598 281.857 457.699 281.908 457.758C281.963 457.816 282.055 457.846 282.184 457.846C282.246 457.846 282.289 457.842 282.312 457.834C282.336 457.834 282.355 457.83 282.371 457.822V458.93C282.242 458.984 282.133 459.025 282.043 459.053C281.953 459.08 281.816 459.094 281.633 459.094C281.305 459.094 281.051 459.006 280.871 458.83C280.695 458.654 280.596 458.451 280.572 458.221C280.428 458.479 280.188 458.699 279.852 458.883C279.516 459.066 279.125 459.158 278.68 459.158C278.305 459.158 277.977 459.104 277.695 458.994C277.414 458.885 277.18 458.74 276.992 458.561C276.805 458.381 276.662 458.174 276.564 457.939C276.471 457.701 276.424 457.455 276.424 457.201ZM277.889 457.166C277.889 457.404 277.979 457.594 278.158 457.734C278.338 457.875 278.543 457.945 278.773 457.945C279.246 457.945 279.629 457.824 279.922 457.582C280.219 457.336 280.367 456.98 280.367 456.516V456.229L278.785 456.346C278.555 456.361 278.348 456.438 278.164 456.574C277.98 456.711 277.889 456.908 277.889 457.166Z" fill="#7D7D7D"/>
<path d="M282.84 453.996V452.76H283.977V451.178L285.477 450.803V452.76H287.047V453.996H285.477V457.031C285.477 457.27 285.533 457.443 285.646 457.553C285.76 457.662 285.936 457.717 286.174 457.717C286.334 457.717 286.484 457.713 286.625 457.705C286.766 457.697 286.939 457.682 287.146 457.658V458.918C286.729 459.027 286.314 459.082 285.904 459.082C285.889 459.082 285.875 459.082 285.863 459.082C285.23 459.082 284.758 458.912 284.445 458.572C284.133 458.232 283.977 457.764 283.977 457.166V453.996H282.84Z" fill="#7D7D7D"/>
<path d="M287.873 455.883C287.873 455.355 287.938 454.914 288.066 454.559C288.195 454.199 288.375 453.871 288.605 453.574C288.82 453.309 289.117 453.08 289.496 452.889C289.879 452.697 290.311 452.602 290.791 452.602C291.271 452.602 291.701 452.699 292.08 452.895C292.459 453.086 292.756 453.312 292.971 453.574C293.201 453.871 293.381 454.199 293.51 454.559C293.639 454.914 293.703 455.355 293.703 455.883C293.703 456.41 293.639 456.852 293.51 457.207C293.385 457.562 293.205 457.889 292.971 458.186C292.756 458.451 292.459 458.68 292.08 458.871C291.701 459.062 291.271 459.158 290.791 459.158C290.311 459.158 289.879 459.062 289.496 458.871C289.117 458.676 288.82 458.447 288.605 458.186C288.375 457.889 288.195 457.562 288.066 457.207C287.938 456.852 287.873 456.41 287.873 455.883ZM289.396 455.883C289.396 456.18 289.424 456.467 289.479 456.744C289.537 457.018 289.658 457.254 289.842 457.453C289.947 457.566 290.078 457.66 290.234 457.734C290.395 457.809 290.58 457.846 290.791 457.846C290.998 457.846 291.182 457.809 291.342 457.734C291.502 457.656 291.633 457.562 291.734 457.453C291.918 457.254 292.037 457.018 292.092 456.744C292.15 456.467 292.18 456.18 292.18 455.883C292.18 455.586 292.152 455.299 292.098 455.021C292.043 454.744 291.922 454.506 291.734 454.307C291.629 454.193 291.496 454.1 291.336 454.025C291.18 453.951 290.998 453.914 290.791 453.914C290.584 453.914 290.4 453.953 290.24 454.031C290.08 454.105 289.947 454.197 289.842 454.307C289.658 454.506 289.537 454.744 289.479 455.021C289.424 455.299 289.396 455.586 289.396 455.883Z" fill="#7D7D7D"/>
<path d="M295.15 459V452.76H296.422L296.551 453.697C296.695 453.338 296.934 453.078 297.266 452.918C297.598 452.758 297.947 452.678 298.314 452.678C298.467 452.678 298.623 452.689 298.783 452.713V454.154C298.6 454.115 298.428 454.094 298.268 454.09C297.74 454.09 297.34 454.258 297.066 454.594C296.797 454.93 296.662 455.35 296.662 455.854V459H295.15Z" fill="#7D7D7D"/>
<path d="M299.861 451.898V450.346H301.467V451.898H299.861ZM299.908 459V452.76H301.432V459H299.908Z" fill="#7D7D7D"/>
<path d="M303.219 456.926V452.76H304.719V456.586C304.719 456.953 304.799 457.244 304.959 457.459C305.119 457.67 305.4 457.775 305.803 457.775C305.979 457.775 306.127 457.746 306.248 457.688C306.373 457.625 306.48 457.551 306.57 457.465C306.754 457.297 306.875 457.086 306.934 456.832C306.996 456.574 307.027 456.316 307.027 456.059V452.76H308.527V459H307.279L307.168 458.186C307.016 458.49 306.779 458.729 306.459 458.9C306.139 459.072 305.779 459.158 305.381 459.158C305.045 459.158 304.744 459.104 304.479 458.994C304.217 458.885 303.992 458.732 303.805 458.537C303.617 458.342 303.473 458.109 303.371 457.84C303.27 457.566 303.219 457.262 303.219 456.926Z" fill="#7D7D7D"/>
<path d="M310.396 459V452.76H311.645L311.762 453.586C311.938 453.297 312.174 453.061 312.471 452.877C312.768 452.693 313.123 452.602 313.537 452.602C313.979 452.602 314.348 452.693 314.645 452.877C314.941 453.057 315.168 453.305 315.324 453.621C315.508 453.293 315.762 453.041 316.086 452.865C316.41 452.689 316.785 452.602 317.211 452.602C317.883 452.602 318.389 452.805 318.729 453.211C319.068 453.613 319.238 454.139 319.238 454.787V459H317.75V455.121C317.75 454.738 317.684 454.441 317.551 454.23C317.422 454.02 317.168 453.914 316.789 453.914C316.574 453.914 316.391 453.965 316.238 454.066C316.086 454.164 315.959 454.295 315.857 454.459C315.76 454.623 315.686 454.805 315.635 455.004C315.588 455.203 315.564 455.398 315.564 455.59V459H314.076V455.121C314.076 454.738 314.01 454.441 313.877 454.23C313.748 454.02 313.496 453.914 313.121 453.914C312.906 453.914 312.723 453.965 312.57 454.066C312.418 454.164 312.289 454.295 312.184 454.459C312.078 454.623 312.002 454.805 311.955 455.004C311.908 455.203 311.885 455.398 311.885 455.59V459H310.396Z" fill="#7D7D7D"/>
<path d="M789.438 239.201C789.438 238.904 789.49 238.641 789.596 238.41C789.705 238.176 789.855 237.975 790.047 237.807C790.238 237.639 790.461 237.51 790.715 237.42C790.973 237.326 791.25 237.268 791.547 237.244L793.381 237.109V236.729C793.381 236.432 793.311 236.193 793.17 236.014C793.033 235.834 792.752 235.744 792.326 235.744C791.975 235.744 791.701 235.82 791.506 235.973C791.311 236.125 791.205 236.346 791.189 236.635H789.736C789.76 236.283 789.842 235.979 789.982 235.721C790.123 235.463 790.309 235.252 790.539 235.088C790.77 234.924 791.037 234.803 791.342 234.725C791.646 234.643 791.975 234.602 792.326 234.602C792.861 234.602 793.34 234.697 793.762 234.889C794.184 235.076 794.486 235.406 794.67 235.879C794.748 236.078 794.797 236.285 794.816 236.5C794.836 236.715 794.846 236.928 794.846 237.139V239.453C794.846 239.598 794.871 239.699 794.922 239.758C794.977 239.816 795.068 239.846 795.197 239.846C795.26 239.846 795.303 239.842 795.326 239.834C795.35 239.834 795.369 239.83 795.385 239.822V240.93C795.256 240.984 795.146 241.025 795.057 241.053C794.967 241.08 794.83 241.094 794.646 241.094C794.318 241.094 794.064 241.006 793.885 240.83C793.709 240.654 793.609 240.451 793.586 240.221C793.441 240.479 793.201 240.699 792.865 240.883C792.529 241.066 792.139 241.158 791.693 241.158C791.318 241.158 790.99 241.104 790.709 240.994C790.428 240.885 790.193 240.74 790.006 240.561C789.818 240.381 789.676 240.174 789.578 239.939C789.484 239.701 789.438 239.455 789.438 239.201ZM790.902 239.166C790.902 239.404 790.992 239.594 791.172 239.734C791.352 239.875 791.557 239.945 791.787 239.945C792.26 239.945 792.643 239.824 792.936 239.582C793.232 239.336 793.381 238.98 793.381 238.516V238.229L791.799 238.346C791.568 238.361 791.361 238.438 791.178 238.574C790.994 238.711 790.902 238.908 790.902 239.166Z" fill="#7D7D7D"/>
<path d="M795.672 234.76H797.254L798.818 239.154L800.289 234.76H801.842L799.586 241H797.986L795.672 234.76Z" fill="#7D7D7D"/>
<path d="M802.281 237.895C802.281 237.391 802.355 236.924 802.504 236.494C802.652 236.064 802.879 235.699 803.184 235.398C803.414 235.16 803.695 234.969 804.027 234.824C804.359 234.676 804.742 234.602 805.176 234.602C805.641 234.602 806.072 234.697 806.471 234.889C806.869 235.076 807.197 235.365 807.455 235.756C807.686 236.1 807.832 236.441 807.895 236.781C807.961 237.121 807.994 237.504 807.994 237.93C807.986 237.984 807.982 238.035 807.982 238.082V238.346H803.805C803.805 238.365 803.805 238.387 803.805 238.41C803.805 238.629 803.84 238.836 803.91 239.031C803.988 239.25 804.105 239.43 804.262 239.57C804.375 239.676 804.504 239.768 804.648 239.846C804.797 239.92 804.977 239.957 805.188 239.957C805.402 239.957 805.58 239.936 805.721 239.893C805.861 239.846 805.986 239.768 806.096 239.658C806.24 239.514 806.34 239.338 806.395 239.131H807.836C807.82 239.314 807.758 239.516 807.648 239.734C807.543 239.953 807.43 240.135 807.309 240.279C807.043 240.592 806.727 240.816 806.359 240.953C805.992 241.09 805.609 241.158 805.211 241.158C804.777 241.158 804.402 241.088 804.086 240.947C803.77 240.807 803.488 240.621 803.242 240.391C802.93 240.086 802.691 239.723 802.527 239.301C802.363 238.875 802.281 238.406 802.281 237.895ZM803.793 237.256H806.494C806.486 236.799 806.357 236.436 806.107 236.166C806.002 236.053 805.871 235.965 805.715 235.902C805.562 235.836 805.379 235.803 805.164 235.803C804.934 235.803 804.729 235.848 804.549 235.938C804.373 236.023 804.229 236.139 804.115 236.283C804.002 236.42 803.922 236.564 803.875 236.717C803.828 236.869 803.801 237.049 803.793 237.256Z" fill="#7D7D7D"/>
<path d="M809.395 241V234.76H810.666L810.795 235.697C810.939 235.338 811.178 235.078 811.51 234.918C811.842 234.758 812.191 234.678 812.559 234.678C812.711 234.678 812.867 234.689 813.027 234.713V236.154C812.844 236.115 812.672 236.094 812.512 236.09C811.984 236.09 811.584 236.258 811.311 236.594C811.041 236.93 810.906 237.35 810.906 237.854V241H809.395Z" fill="#7D7D7D"/>
<path d="M813.496 239.201C813.496 238.904 813.549 238.641 813.654 238.41C813.764 238.176 813.914 237.975 814.105 237.807C814.297 237.639 814.52 237.51 814.773 237.42C815.031 237.326 815.309 237.268 815.605 237.244L817.439 237.109V236.729C817.439 236.432 817.369 236.193 817.229 236.014C817.092 235.834 816.811 235.744 816.385 235.744C816.033 235.744 815.76 235.82 815.564 235.973C815.369 236.125 815.264 236.346 815.248 236.635H813.795C813.818 236.283 813.9 235.979 814.041 235.721C814.182 235.463 814.367 235.252 814.598 235.088C814.828 234.924 815.096 234.803 815.4 234.725C815.705 234.643 816.033 234.602 816.385 234.602C816.92 234.602 817.398 234.697 817.82 234.889C818.242 235.076 818.545 235.406 818.729 235.879C818.807 236.078 818.855 236.285 818.875 236.5C818.895 236.715 818.904 236.928 818.904 237.139V239.453C818.904 239.598 818.93 239.699 818.98 239.758C819.035 239.816 819.127 239.846 819.256 239.846C819.318 239.846 819.361 239.842 819.385 239.834C819.408 239.834 819.428 239.83 819.443 239.822V240.93C819.314 240.984 819.205 241.025 819.115 241.053C819.025 241.08 818.889 241.094 818.705 241.094C818.377 241.094 818.123 241.006 817.943 240.83C817.768 240.654 817.668 240.451 817.645 240.221C817.5 240.479 817.26 240.699 816.924 240.883C816.588 241.066 816.197 241.158 815.752 241.158C815.377 241.158 815.049 241.104 814.768 240.994C814.486 240.885 814.252 240.74 814.064 240.561C813.877 240.381 813.734 240.174 813.637 239.939C813.543 239.701 813.496 239.455 813.496 239.201ZM814.961 239.166C814.961 239.404 815.051 239.594 815.23 239.734C815.41 239.875 815.615 239.945 815.846 239.945C816.318 239.945 816.701 239.824 816.994 239.582C817.291 239.336 817.439 238.98 817.439 238.516V238.229L815.857 238.346C815.627 238.361 815.42 238.438 815.236 238.574C815.053 238.711 814.961 238.908 814.961 239.166Z" fill="#7D7D7D"/>
<path d="M820.27 242.031C820.27 241.758 820.332 241.508 820.457 241.281C820.586 241.055 820.771 240.881 821.014 240.76C820.814 240.646 820.66 240.492 820.551 240.297C820.441 240.102 820.387 239.9 820.387 239.693C820.387 239.158 820.635 238.738 821.131 238.434C820.939 238.242 820.787 238.02 820.674 237.766C820.564 237.508 820.51 237.219 820.51 236.898C820.51 236.531 820.576 236.203 820.709 235.914C820.846 235.625 821.029 235.385 821.26 235.193C821.494 235.002 821.766 234.855 822.074 234.754C822.383 234.652 822.713 234.602 823.064 234.602C823.322 234.602 823.57 234.637 823.809 234.707C824.047 234.773 824.271 234.867 824.482 234.988C824.619 234.715 824.799 234.518 825.021 234.396C825.244 234.271 825.488 234.209 825.754 234.209H825.959C826.049 234.209 826.115 234.217 826.158 234.232V235.398C826.143 235.398 826.123 235.396 826.1 235.393C826.076 235.389 826.057 235.387 826.041 235.387C825.865 235.387 825.707 235.414 825.566 235.469C825.426 235.523 825.332 235.627 825.285 235.779C825.5 236.131 825.607 236.508 825.607 236.91C825.607 237.27 825.537 237.59 825.396 237.871C825.26 238.148 825.074 238.383 824.84 238.574C824.609 238.766 824.34 238.914 824.031 239.02C823.723 239.125 823.4 239.178 823.064 239.178C822.713 239.178 822.377 239.121 822.057 239.008C821.986 239.047 821.916 239.105 821.846 239.184C821.779 239.258 821.746 239.348 821.746 239.453C821.746 239.637 821.82 239.76 821.969 239.822C822.117 239.881 822.27 239.91 822.426 239.91H823.463C823.615 239.91 823.779 239.912 823.955 239.916C824.131 239.92 824.309 239.936 824.488 239.963C824.668 239.99 824.844 240.033 825.016 240.092C825.188 240.146 825.346 240.225 825.49 240.326C825.764 240.51 825.957 240.73 826.07 240.988C826.188 241.242 826.246 241.521 826.246 241.826C826.246 242.232 826.154 242.572 825.971 242.846C825.787 243.119 825.551 243.334 825.262 243.49C824.973 243.646 824.648 243.756 824.289 243.818C823.93 243.885 823.578 243.918 823.234 243.918C822.852 243.918 822.469 243.889 822.086 243.83C821.707 243.775 821.354 243.633 821.025 243.402C820.787 243.234 820.602 243.037 820.469 242.811C820.336 242.588 820.27 242.328 820.27 242.031ZM821.6 241.861C821.6 242.061 821.652 242.217 821.758 242.33C821.867 242.443 822.002 242.529 822.162 242.588C822.322 242.65 822.494 242.689 822.678 242.705C822.865 242.721 823.029 242.729 823.17 242.729C823.322 242.729 823.494 242.723 823.686 242.711C823.881 242.699 824.062 242.664 824.23 242.605C824.398 242.551 824.539 242.465 824.652 242.348C824.77 242.23 824.828 242.068 824.828 241.861C824.828 241.67 824.775 241.521 824.67 241.416C824.568 241.314 824.443 241.238 824.295 241.188C824.146 241.141 823.986 241.113 823.814 241.105C823.643 241.098 823.484 241.094 823.34 241.094H822.162C822.002 241.141 821.867 241.23 821.758 241.363C821.652 241.496 821.6 241.662 821.6 241.861ZM821.963 236.898C821.963 237.234 822.061 237.51 822.256 237.725C822.451 237.939 822.721 238.047 823.064 238.047C823.408 238.047 823.678 237.939 823.873 237.725C824.068 237.51 824.166 237.234 824.166 236.898C824.166 236.562 824.068 236.285 823.873 236.066C823.678 235.844 823.408 235.732 823.064 235.732C822.721 235.732 822.451 235.844 822.256 236.066C822.061 236.285 821.963 236.562 821.963 236.898Z" fill="#7D7D7D"/>
<path d="M826.809 237.895C826.809 237.391 826.883 236.924 827.031 236.494C827.18 236.064 827.406 235.699 827.711 235.398C827.941 235.16 828.223 234.969 828.555 234.824C828.887 234.676 829.27 234.602 829.703 234.602C830.168 234.602 830.6 234.697 830.998 234.889C831.396 235.076 831.725 235.365 831.982 235.756C832.213 236.1 832.359 236.441 832.422 236.781C832.488 237.121 832.521 237.504 832.521 237.93C832.514 237.984 832.51 238.035 832.51 238.082V238.346H828.332C828.332 238.365 828.332 238.387 828.332 238.41C828.332 238.629 828.367 238.836 828.438 239.031C828.516 239.25 828.633 239.43 828.789 239.57C828.902 239.676 829.031 239.768 829.176 239.846C829.324 239.92 829.504 239.957 829.715 239.957C829.93 239.957 830.107 239.936 830.248 239.893C830.389 239.846 830.514 239.768 830.623 239.658C830.768 239.514 830.867 239.338 830.922 239.131H832.363C832.348 239.314 832.285 239.516 832.176 239.734C832.07 239.953 831.957 240.135 831.836 240.279C831.57 240.592 831.254 240.816 830.887 240.953C830.52 241.09 830.137 241.158 829.738 241.158C829.305 241.158 828.93 241.088 828.613 240.947C828.297 240.807 828.016 240.621 827.77 240.391C827.457 240.086 827.219 239.723 827.055 239.301C826.891 238.875 826.809 238.406 826.809 237.895ZM828.32 237.256H831.021C831.014 236.799 830.885 236.436 830.635 236.166C830.529 236.053 830.398 235.965 830.242 235.902C830.09 235.836 829.906 235.803 829.691 235.803C829.461 235.803 829.256 235.848 829.076 235.938C828.9 236.023 828.756 236.139 828.643 236.283C828.529 236.42 828.449 236.564 828.402 236.717C828.355 236.869 828.328 237.049 828.32 237.256Z" fill="#7D7D7D"/>
<path d="M793.697 250.996V249.76H794.752V249.162C794.752 248.588 794.938 248.117 795.309 247.75C795.68 247.379 796.201 247.193 796.873 247.193C797.088 247.193 797.279 247.203 797.447 247.223C797.619 247.242 797.82 247.275 798.051 247.322V248.523C797.891 248.492 797.736 248.469 797.588 248.453C797.439 248.438 797.266 248.43 797.066 248.43C796.793 248.43 796.588 248.5 796.451 248.641C796.318 248.777 796.252 248.959 796.252 249.186V249.76H797.922V250.996H796.252V256H794.752V250.996H793.697Z" fill="#7D7D7D"/>
<path d="M798.965 248.898V247.346H800.57V248.898H798.965ZM799.012 256V249.76H800.535V256H799.012Z" fill="#7D7D7D"/>
<path d="M802.387 254.395V247.322H803.898V254.143C803.898 254.326 803.934 254.473 804.004 254.582C804.078 254.688 804.242 254.74 804.496 254.74C804.559 254.74 804.605 254.738 804.637 254.734C804.672 254.73 804.709 254.729 804.748 254.729V255.988C804.596 256.02 804.484 256.041 804.414 256.053C804.348 256.064 804.238 256.07 804.086 256.07C803.574 256.07 803.162 255.939 802.85 255.678C802.541 255.412 802.387 254.984 802.387 254.395Z" fill="#7D7D7D"/>
<path d="M806.02 248.898V247.346H807.625V248.898H806.02ZM806.066 256V249.76H807.59V256H806.066Z" fill="#7D7D7D"/>
<path d="M809.477 256V249.76H810.736L810.842 250.562C811.025 250.234 811.287 249.992 811.627 249.836C811.967 249.68 812.318 249.602 812.682 249.602C813.018 249.602 813.314 249.658 813.572 249.771C813.834 249.885 814.055 250.039 814.234 250.234C814.414 250.43 814.551 250.666 814.645 250.943C814.742 251.217 814.791 251.514 814.791 251.834V256H813.291V252.174C813.291 251.807 813.219 251.52 813.074 251.312C812.93 251.102 812.658 250.996 812.26 250.996C811.994 250.996 811.773 251.07 811.598 251.219C811.422 251.367 811.283 251.557 811.182 251.787C811.068 252.033 811.006 252.307 810.994 252.607C810.982 252.908 810.977 253.191 810.977 253.457V256H809.477Z" fill="#7D7D7D"/>
<path d="M816.086 257.031C816.086 256.758 816.148 256.508 816.273 256.281C816.402 256.055 816.588 255.881 816.83 255.76C816.631 255.646 816.477 255.492 816.367 255.297C816.258 255.102 816.203 254.9 816.203 254.693C816.203 254.158 816.451 253.738 816.947 253.434C816.756 253.242 816.604 253.02 816.49 252.766C816.381 252.508 816.326 252.219 816.326 251.898C816.326 251.531 816.393 251.203 816.525 250.914C816.662 250.625 816.846 250.385 817.076 250.193C817.311 250.002 817.582 249.855 817.891 249.754C818.199 249.652 818.529 249.602 818.881 249.602C819.139 249.602 819.387 249.637 819.625 249.707C819.863 249.773 820.088 249.867 820.299 249.988C820.436 249.715 820.615 249.518 820.838 249.396C821.061 249.271 821.305 249.209 821.57 249.209H821.775C821.865 249.209 821.932 249.217 821.975 249.232V250.398C821.959 250.398 821.939 250.396 821.916 250.393C821.893 250.389 821.873 250.387 821.857 250.387C821.682 250.387 821.523 250.414 821.383 250.469C821.242 250.523 821.148 250.627 821.102 250.779C821.316 251.131 821.424 251.508 821.424 251.91C821.424 252.27 821.354 252.59 821.213 252.871C821.076 253.148 820.891 253.383 820.656 253.574C820.426 253.766 820.156 253.914 819.848 254.02C819.539 254.125 819.217 254.178 818.881 254.178C818.529 254.178 818.193 254.121 817.873 254.008C817.803 254.047 817.732 254.105 817.662 254.184C817.596 254.258 817.562 254.348 817.562 254.453C817.562 254.637 817.637 254.76 817.785 254.822C817.934 254.881 818.086 254.91 818.242 254.91H819.279C819.432 254.91 819.596 254.912 819.771 254.916C819.947 254.92 820.125 254.936 820.305 254.963C820.484 254.99 820.66 255.033 820.832 255.092C821.004 255.146 821.162 255.225 821.307 255.326C821.58 255.51 821.773 255.73 821.887 255.988C822.004 256.242 822.062 256.521 822.062 256.826C822.062 257.232 821.971 257.572 821.787 257.846C821.604 258.119 821.367 258.334 821.078 258.49C820.789 258.646 820.465 258.756 820.105 258.818C819.746 258.885 819.395 258.918 819.051 258.918C818.668 258.918 818.285 258.889 817.902 258.83C817.523 258.775 817.17 258.633 816.842 258.402C816.604 258.234 816.418 258.037 816.285 257.811C816.152 257.588 816.086 257.328 816.086 257.031ZM817.416 256.861C817.416 257.061 817.469 257.217 817.574 257.33C817.684 257.443 817.818 257.529 817.979 257.588C818.139 257.65 818.311 257.689 818.494 257.705C818.682 257.721 818.846 257.729 818.986 257.729C819.139 257.729 819.311 257.723 819.502 257.711C819.697 257.699 819.879 257.664 820.047 257.605C820.215 257.551 820.355 257.465 820.469 257.348C820.586 257.23 820.645 257.068 820.645 256.861C820.645 256.67 820.592 256.521 820.486 256.416C820.385 256.314 820.26 256.238 820.111 256.188C819.963 256.141 819.803 256.113 819.631 256.105C819.459 256.098 819.301 256.094 819.156 256.094H817.979C817.818 256.141 817.684 256.23 817.574 256.363C817.469 256.496 817.416 256.662 817.416 256.861ZM817.779 251.898C817.779 252.234 817.877 252.51 818.072 252.725C818.268 252.939 818.537 253.047 818.881 253.047C819.225 253.047 819.494 252.939 819.689 252.725C819.885 252.51 819.982 252.234 819.982 251.898C819.982 251.562 819.885 251.285 819.689 251.066C819.494 250.844 819.225 250.732 818.881 250.732C818.537 250.732 818.268 250.844 818.072 251.066C817.877 251.285 817.779 251.562 817.779 251.898Z" fill="#7D7D7D"/>
<path d="M822.672 253.984H824.072C824.072 254.121 824.104 254.258 824.166 254.395C824.232 254.527 824.314 254.635 824.412 254.717C824.533 254.814 824.666 254.885 824.811 254.928C824.959 254.971 825.141 254.992 825.355 254.992C825.484 254.992 825.623 254.982 825.771 254.963C825.92 254.943 826.059 254.906 826.188 254.852C826.316 254.793 826.422 254.713 826.504 254.611C826.59 254.506 826.633 254.369 826.633 254.201C826.633 254.018 826.576 253.869 826.463 253.756C826.35 253.643 826.197 253.57 826.006 253.539C825.725 253.5 825.436 253.467 825.139 253.439C824.846 253.412 824.559 253.365 824.277 253.299C824.062 253.252 823.869 253.178 823.697 253.076C823.525 252.971 823.375 252.844 823.246 252.695C823.117 252.547 823.018 252.383 822.947 252.203C822.881 252.023 822.848 251.834 822.848 251.635C822.848 251.314 822.908 251.041 823.029 250.814C823.15 250.584 823.303 250.389 823.486 250.229C823.717 250.029 823.992 249.875 824.312 249.766C824.633 249.656 824.99 249.602 825.385 249.602C825.76 249.602 826.121 249.662 826.469 249.783C826.816 249.904 827.105 250.088 827.336 250.334C827.504 250.518 827.639 250.721 827.74 250.943C827.842 251.162 827.893 251.387 827.893 251.617H826.463C826.463 251.496 826.438 251.389 826.387 251.295C826.34 251.201 826.281 251.113 826.211 251.031C826.121 250.941 826.002 250.871 825.854 250.82C825.709 250.77 825.557 250.744 825.396 250.744C825.283 250.744 825.174 250.748 825.068 250.756C824.967 250.764 824.859 250.791 824.746 250.838C824.609 250.893 824.494 250.977 824.4 251.09C824.311 251.203 824.266 251.34 824.266 251.5C824.266 251.723 824.344 251.877 824.5 251.963C824.656 252.045 824.818 252.098 824.986 252.121C825.131 252.137 825.25 252.154 825.344 252.174L825.637 252.209C825.734 252.217 825.834 252.229 825.936 252.244C826.037 252.26 826.164 252.279 826.316 252.303C826.812 252.381 827.221 252.57 827.541 252.871C827.861 253.172 828.021 253.57 828.021 254.066C828.021 254.371 827.971 254.637 827.869 254.863C827.771 255.086 827.643 255.277 827.482 255.438C827.225 255.695 826.912 255.881 826.545 255.994C826.178 256.104 825.777 256.158 825.344 256.158C824.945 256.158 824.574 256.1 824.23 255.982C823.887 255.865 823.586 255.684 823.328 255.438C823.145 255.262 822.988 255.051 822.859 254.805C822.734 254.555 822.672 254.281 822.672 253.984Z" fill="#7D7D7D"/>
</svg>
